<svg xmlns="http://www.w3.org/2000/svg" xmlns:xlink="http://www.w3.org/1999/xlink" width="646.2152" height="775.9518" viewBox="0 0 646.2152 775.9518"><defs><pattern id="Hatching" data-name="Hatching" width="72" height="72" patternTransform="translate(-373.6497 91.2666)" patternUnits="userSpaceOnUse" viewBox="0 0 72 72"><rect width="72" height="72" fill="none"/><line x1="67.9648" y1="72.8486" x2="69.0781" y2="69.8887" fill="none" stroke="#231f20" stroke-width="0.3"/><line x1="63.1269" y1="72.9844" x2="62.5" y2="69.708" fill="none" stroke="#231f20" stroke-width="0.3"/><line x1="47.9121" y1="73.8379" x2="48.0273" y2="70.8408" fill="none" stroke="#231f20" stroke-width="0.3"/><line x1="32.2129" y1="72.2422" x2="30.789" y2="70.1875" fill="none" stroke="#231f20" stroke-width="0.3"/><line x1="15.9453" y1="72.375" x2="17.2715" y2="70.4238" fill="none" stroke="#231f20" stroke-width="0.3"/><line x1="4.8867" y1="73.707" x2="3.2227" y2="71.3926" fill="none" stroke="#231f20" stroke-width="0.3"/><line x1="55.4726" y1="74.0176" x2="57.4726" y2="71.0176" fill="none" stroke="#231f20" stroke-width="0.3"/><line x1="74.75" y1="24" x2="71.75" y2="24" fill="none" stroke="#231f20" stroke-width="0.3"/><line x1="73.75" y1="39.75" x2="71.75" y2="41.25" fill="none" stroke="#231f20" stroke-width="0.3"/><line x1="5.75" y1="10.75" x2="3" y2="12.75" fill="none" stroke="#231f20" stroke-width="0.3"/><line x1="4.25" y1="67" x2="2" y2="68.75" fill="none" stroke="#231f20" stroke-width="0.3"/><line x1="73.25" y1="7" x2="70" y2="7.75" fill="none" stroke="#231f20" stroke-width="0.3"/><line x1="72" y1="18.75" x2="69.5" y2="20.5" fill="none" stroke="#231f20" stroke-width="0.3"/><line x1="74.75" y1="24" x2="71.75" y2="24" fill="none" stroke="#231f20" stroke-width="0.3"/><line x1="71.5" y1="31.5" x2="68.75" y2="29.75" fill="none" stroke="#231f20" stroke-width="0.3"/><line x1="73.75" y1="39.75" x2="71.75" y2="41.25" fill="none" stroke="#231f20" stroke-width="0.3"/><line x1="71.25" y1="51.75" x2="68.5" y2="49.5" fill="none" stroke="#231f20" stroke-width="0.3"/><line x1="73.25" y1="62.75" x2="69" y2="62" fill="none" stroke="#231f20" stroke-width="0.3"/><line x1="63.5" y1="61" x2="61.25" y2="62.75" fill="none" stroke="#231f20" stroke-width="0.3"/><line x1="71.75" y1="45" x2="68.75" y2="45" fill="none" stroke="#231f20" stroke-width="0.3"/><line x1="58" y1="17.5" x2="56.1074" y2="14.6758" fill="none" stroke="#231f20" stroke-width="0.3"/><line x1="28" y1="16" x2="26.3457" y2="13.4365" fill="none" stroke="#231f20" stroke-width="0.3"/><line x1="43.041" y1="11.5567" x2="44.8945" y2="8.875" fill="none" stroke="#231f20" stroke-width="0.3"/><line x1="67.9648" y1="72.8486" x2="69.0781" y2="69.8887" fill="none" stroke="#231f20" stroke-width="0.3"/><line x1="63.1269" y1="72.9844" x2="62.5" y2="69.708" fill="none" stroke="#231f20" stroke-width="0.3"/><line x1="57" y1="48" x2="55.1074" y2="45.1758" fill="none" stroke="#231f20" stroke-width="0.3"/><line x1="48.6543" y1="19.5645" x2="47" y2="17" fill="none" stroke="#231f20" stroke-width="0.3"/><line x1="47.9121" y1="73.8379" x2="48.0273" y2="70.8408" fill="none" stroke="#231f20" stroke-width="0.3"/><line x1="40.541" y1="70.3066" x2="42.3945" y2="67.625" fill="none" stroke="#231f20" stroke-width="0.3"/><line x1="32.2129" y1="72.2422" x2="30.789" y2="70.1875" fill="none" stroke="#231f20" stroke-width="0.3"/><line x1="50.3164" y1="40.7891" x2="52.6679" y2="38.126" fill="none" stroke="#231f20" stroke-width="0.3"/><line x1="15.9453" y1="72.375" x2="17.2715" y2="70.4238" fill="none" stroke="#231f20" stroke-width="0.3"/><line x1="9.248" y1="70.8701" x2="10.1582" y2="66.6524" fill="none" stroke="#231f20" stroke-width="0.3"/><line x1="4.8867" y1="73.707" x2="3.2227" y2="71.3926" fill="none" stroke="#231f20" stroke-width="0.3"/><line x1="27.041" y1="70.044" x2="27.1562" y2="67.0459" fill="none" stroke="#231f20" stroke-width="0.3"/><line x1="7.25" y1="5.25" x2="10.75" y2="6.75" fill="none" stroke="#231f20" stroke-width="0.3"/><line x1="4.5" y1="20.75" x2="4.75" y2="17.5" fill="none" stroke="#231f20" stroke-width="0.3"/><line x1="8" y1="43.75" x2="9.5" y2="47.5" fill="none" stroke="#231f20" stroke-width="0.3"/><line x1="5.25" y1="38.25" x2="7.5" y2="34.5" fill="none" stroke="#231f20" stroke-width="0.3"/><line x1="29.25" y1="4.5" x2="27" y2="7" fill="none" stroke="#231f20" stroke-width="0.3"/><line x1="33.5" y1="4.5" x2="36.75" y2="7.25" fill="none" stroke="#231f20" stroke-width="0.3"/><line x1="50.25" y1="4.5" x2="53.5" y2="6.5" fill="none" stroke="#231f20" stroke-width="0.3"/><line x1="52.5" y1="10.5" x2="50.5" y2="13.75" fill="none" stroke="#231f20" stroke-width="0.3"/><line x1="59.5" y1="9.25" x2="64.5" y2="7" fill="none" stroke="#231f20" stroke-width="0.3"/><line x1="67" y1="12.75" x2="64.5" y2="14.5" fill="none" stroke="#231f20" stroke-width="0.3"/><line x1="18.75" y1="4.75" x2="18.75" y2="7.75" fill="none" stroke="#231f20" stroke-width="0.3"/><line x1="15.75" y1="9.75" x2="12.5" y2="10.25" fill="none" stroke="#231f20" stroke-width="0.3"/><line x1="20" y1="14.25" x2="20.5" y2="17.5" fill="none" stroke="#231f20" stroke-width="0.3"/><line x1="21" y1="9.75" x2="24.5" y2="9" fill="none" stroke="#231f20" stroke-width="0.3"/><line x1="9.25" y1="21.5" x2="12" y2="19.5" fill="none" stroke="#231f20" stroke-width="0.3"/><line x1="7.5" y1="64" x2="7.75" y2="60" fill="none" stroke="#231f20" stroke-width="0.3"/><line x1="7.25" y1="55.75" x2="9.5" y2="53.25" fill="none" stroke="#231f20" stroke-width="0.3"/><line x1="21.25" y1="65.75" x2="18.75" y2="62.25" fill="none" stroke="#231f20" stroke-width="0.3"/><line x1="29.75" y1="28.5" x2="27.25" y2="30.25" fill="none" stroke="#231f20" stroke-width="0.3"/><line x1="57.75" y1="33.75" x2="55" y2="32.25" fill="none" stroke="#231f20" stroke-width="0.3"/><line x1="26.75" y1="40" x2="23" y2="39.25" fill="none" stroke="#231f20" stroke-width="0.3"/><line x1="31.5" y1="49.5" x2="29.5" y2="51" fill="none" stroke="#231f20" stroke-width="0.3"/><line x1="29" y1="61.5" x2="26.25" y2="59.25" fill="none" stroke="#231f20" stroke-width="0.3"/><line x1="32.25" y1="65.75" x2="30.25" y2="64.5" fill="none" stroke="#231f20" stroke-width="0.3"/><line x1="29.5" y1="54.75" x2="26.5" y2="54.75" fill="none" stroke="#231f20" stroke-width="0.3"/><line x1="39.75" y1="19" x2="37.25" y2="20.75" fill="none" stroke="#231f20" stroke-width="0.3"/><line x1="42.5" y1="24.25" x2="39.5" y2="24.25" fill="none" stroke="#231f20" stroke-width="0.3"/><line x1="39.25" y1="31.75" x2="36.5" y2="30" fill="none" stroke="#231f20" stroke-width="0.3"/><line x1="38.5" y1="42.5" x2="37.75" y2="45" fill="none" stroke="#231f20" stroke-width="0.3"/><line x1="39" y1="52" x2="36.25" y2="49.75" fill="none" stroke="#231f20" stroke-width="0.3"/><line x1="39.5" y1="60" x2="37.5" y2="58.75" fill="none" stroke="#231f20" stroke-width="0.3"/><line x1="62.9726" y1="44.5176" x2="59.9726" y2="44.5176" fill="none" stroke="#231f20" stroke-width="0.3"/><line x1="22.25" y1="43" x2="24.75" y2="44.75" fill="none" stroke="#231f20" stroke-width="0.3"/><line x1="27" y1="20.5" x2="30" y2="20.5" fill="none" stroke="#231f20" stroke-width="0.3"/><line x1="14.75" y1="34.75" x2="17.25" y2="36.5" fill="none" stroke="#231f20" stroke-width="0.3"/><line x1="12" y1="40" x2="15" y2="40" fill="none" stroke="#231f20" stroke-width="0.3"/><line x1="15.25" y1="47.5" x2="18" y2="45.75" fill="none" stroke="#231f20" stroke-width="0.3"/><line x1="47.25" y1="33" x2="49.6347" y2="31.4395" fill="none" stroke="#231f20" stroke-width="0.3"/><line x1="47.5879" y1="25.4707" x2="49.9707" y2="27.292" fill="none" stroke="#231f20" stroke-width="0.3"/><line x1="54.7226" y1="21.4844" x2="54.5" y2="24.5" fill="none" stroke="#231f20" stroke-width="0.3"/><line x1="45.3359" y1="65.5625" x2="48.3847" y2="65.6895" fill="none" stroke="#231f20" stroke-width="0.3"/><line x1="46.3379" y1="59.7207" x2="48.7207" y2="61.542" fill="none" stroke="#231f20" stroke-width="0.3"/><line x1="53.4726" y1="55.7344" x2="54.5957" y2="58.794" fill="none" stroke="#231f20" stroke-width="0.3"/><line x1="48.25" y1="43.5" x2="45.75" y2="45.25" fill="none" stroke="#231f20" stroke-width="0.3"/><line x1="48" y1="51" x2="44.75" y2="50" fill="none" stroke="#231f20" stroke-width="0.3"/><line x1="57" y1="66.5" x2="54.25" y2="64.75" fill="none" stroke="#231f20" stroke-width="0.3"/><line x1="64.5" y1="41" x2="61.75" y2="39.25" fill="none" stroke="#231f20" stroke-width="0.3"/><line x1="62.25" y1="52" x2="60.25" y2="53.5" fill="none" stroke="#231f20" stroke-width="0.3"/><line x1="19.5859" y1="29.5625" x2="22.6347" y2="29.6895" fill="none" stroke="#231f20" stroke-width="0.3"/><line x1="20.5879" y1="23.7207" x2="22.9707" y2="25.542" fill="none" stroke="#231f20" stroke-width="0.3"/><line x1="57.75" y1="28.5" x2="60.4707" y2="29.042" fill="none" stroke="#231f20" stroke-width="0.3"/><line x1="15" y1="55.75" x2="15.5" y2="59" fill="none" stroke="#231f20" stroke-width="0.3"/><line x1="17" y1="53.75" x2="20.5" y2="53" fill="none" stroke="#231f20" stroke-width="0.3"/><line x1="32.75" y1="12.75" x2="36.75" y2="13.5" fill="none" stroke="#231f20" stroke-width="0.3"/><line x1="33.4726" y1="33.5176" x2="33.9726" y2="37.0176" fill="none" stroke="#231f20" stroke-width="0.3"/><line x1="64.5" y1="23" x2="62" y2="21.75" fill="none" stroke="#231f20" stroke-width="0.3"/><line x1="10" y1="13.5" x2="13.25" y2="16.25" fill="none" stroke="#231f20" stroke-width="0.3"/><line x1="4.75" y1="29.5" x2="2.25" y2="31.25" fill="none" stroke="#231f20" stroke-width="0.3"/><line x1="15.75" y1="24" x2="13.75" y2="25.5" fill="none" stroke="#231f20" stroke-width="0.3"/><line x1="41.291" y1="4.8067" x2="43.1445" y2="2.125" fill="none" stroke="#231f20" stroke-width="0.3"/><line x1="64.541" y1="35.0567" x2="66.3945" y2="32.375" fill="none" stroke="#231f20" stroke-width="0.3"/><line x1="33.791" y1="26.3067" x2="34.5" y2="23.5" fill="none" stroke="#231f20" stroke-width="0.3"/><line x1="20.291" y1="58.8067" x2="21" y2="56" fill="none" stroke="#231f20" stroke-width="0.3"/><line x1="31.75" y1="42.75" x2="29.75" y2="44.25" fill="none" stroke="#231f20" stroke-width="0.3"/><line x1="2.75" y1="24" x2="-0.25" y2="24" fill="none" stroke="#231f20" stroke-width="0.3"/><line x1="1.75" y1="39.75" x2="-0.25" y2="41.25" fill="none" stroke="#231f20" stroke-width="0.3"/><line x1="67.9648" y1="0.8486" x2="69.0781" y2="-2.1113" fill="none" stroke="#231f20" stroke-width="0.3"/><line x1="63.1269" y1="0.9844" x2="62.5" y2="-2.292" fill="none" stroke="#231f20" stroke-width="0.3"/><line x1="47.9121" y1="1.8379" x2="48.0273" y2="-1.1592" fill="none" stroke="#231f20" stroke-width="0.3"/><line x1="32.2129" y1="0.2422" x2="30.789" y2="-1.8125" fill="none" stroke="#231f20" stroke-width="0.3"/><line x1="15.9453" y1="0.375" x2="17.2715" y2="-1.5762" fill="none" stroke="#231f20" stroke-width="0.3"/><line x1="4.8867" y1="1.707" x2="3.2227" y2="-0.6074" fill="none" stroke="#231f20" stroke-width="0.3"/><line x1="5.25" y1="52" x2="1.5" y2="51.25" fill="none" stroke="#231f20" stroke-width="0.3"/><line x1="68.3672" y1="57.3408" x2="66.4726" y2="54.5176" fill="none" stroke="#231f20" stroke-width="0.3"/><line x1="23.9726" y1="36.0176" x2="24.6562" y2="33.2285" fill="none" stroke="#231f20" stroke-width="0.3"/><line x1="44.75" y1="37" x2="42.75" y2="38.5" fill="none" stroke="#231f20" stroke-width="0.3"/><line x1="55.4726" y1="2.0176" x2="57.4726" y2="-0.9824" fill="none" stroke="#231f20" stroke-width="0.3"/><line x1="55.4726" y1="74.0176" x2="57.4726" y2="71.0176" fill="none" stroke="#231f20" stroke-width="0.3"/><line x1="1.25" y1="7" x2="-2" y2="7.75" fill="none" stroke="#231f20" stroke-width="0.3"/><line y1="18.75" x2="-2.5" y2="20.5" fill="none" stroke="#231f20" stroke-width="0.3"/><line x1="2.75" y1="24" x2="-0.25" y2="24" fill="none" stroke="#231f20" stroke-width="0.3"/><line x1="1.75" y1="39.75" x2="-0.25" y2="41.25" fill="none" stroke="#231f20" stroke-width="0.3"/><line x1="1.25" y1="62.75" x2="-3" y2="62" fill="none" stroke="#231f20" stroke-width="0.3"/><line x1="67.9648" y1="0.8486" x2="69.0781" y2="-2.1113" fill="none" stroke="#231f20" stroke-width="0.3"/><line x1="63.1269" y1="0.9844" x2="62.5" y2="-2.292" fill="none" stroke="#231f20" stroke-width="0.3"/><line x1="47.9121" y1="1.8379" x2="48.0273" y2="-1.1592" fill="none" stroke="#231f20" stroke-width="0.3"/><line x1="32.2129" y1="0.2422" x2="30.789" y2="-1.8125" fill="none" stroke="#231f20" stroke-width="0.3"/><line x1="15.9453" y1="0.375" x2="17.2715" y2="-1.5762" fill="none" stroke="#231f20" stroke-width="0.3"/><line x1="4.8867" y1="1.707" x2="3.2227" y2="-0.6074" fill="none" stroke="#231f20" stroke-width="0.3"/><line x1="55.4726" y1="2.0176" x2="57.4726" y2="-0.9824" fill="none" stroke="#231f20" stroke-width="0.3"/></pattern></defs><g id="Layer_2" data-name="Layer 2"><g id="trace"><path d="M144.85,411.5037s-69,21-109-12c-47.2241-38.96-34-84-30-88s9-15,9-15-6-32,13-46,11-13,11-13,1.6643-12.5151,11-26c9-13,24-36,34-38s10-15,29-29c9.958-7.3375,21-10,43-14,12.8281-2.3324,22.4091-.0478,27-2s11.0227-19.0487,31-20c21-1,34-5,66,4s41,14,46,13,78.5-52.5,124,20l8,10s0-5,18,0,34,12,51,28,29.0741,40.7372,43,41c26.5.5,15,16,27,32,14.0072,18.6762,26.5,23.5,15,59-4.7041,14.5214,13.0091,15.9971,20,38,7.124,22.4213-13.4173,54.963-14,55a52.3681,52.3681,0,0,1,18,23c5.8082,15.0252,14.6919,40.02,3.5,55.5s-45.5314,45.2714-72,37c-16-5-23.5-14.5-26.5-35.5s-3-14-3-14-21,35-63,31-62-16-64-27c0,0-6,21-34,27s-52.5093-1.46-60-13c0,0-18.9671,20.3821-40,22-26,2-41,14-110-25C109.3339,456.9944,144.85,411.5037,144.85,411.5037Z" fill="url(#Hatching)"/><path d="M144.7267,411.5886c-.0016.0589.1125.091.1127.0754l-.0542.0165-.1086.0329-.2168.0648-.4343.127-.87.2473-1.7454.4723c-34.8945,8.6376-78.5038,10.8466-107.536-13.7663C11.4681,380.5454-4.2579,351.37,1.0278,321.897c.8592-3.9542,1.5513-8.2267,4.2791-11.46,3.6219-4.2077,6.0661-9.3761,8.5-14.4072l-.0832.6852a73.7967,73.7967,0,0,1-.6892-17.77c.8163-10.3036,4.3162-21.2336,12.4762-28.1324,4.4047-3.59,9.459-6.8035,13.0747-11.1852a6.41,6.41,0,0,0,.5028-.7554,1.7514,1.7514,0,0,0,.1872-.4617.429.429,0,0,0,.0975.246c.0827.1112.1405.1254.1217.1174a1.4841,1.4841,0,0,0-.49-.0345l-1.661.2248c1.6119-10.93,6.3328-21.0448,12.6565-29.9474,5.7643-8.3967,11.4819-16.8974,18.1611-24.7561,3.4661-3.9424,6.96-7.8389,11.588-10.565,2.0858-1.3925,4.9053-1.4095,7.0323-2.7639a18.7726,18.7726,0,0,0,4.9282-5.0866,130.3115,130.3115,0,0,1,9.2529-12.3168,71.3709,71.3709,0,0,1,11.5678-10.3823c8.4439-6.1884,18.7573-8.9543,28.8-11.1029,5.0169-1.0631,10.0172-1.9941,15.0669-2.8942,7.5882-1.4516,15.4012-.746,22.9722-1.0813,2.6791-.1274,4.0478-.9916,5.7008-3.0794,1.6184-1.8958,3.2208-3.9375,4.9826-5.8424,6.0728-6.9126,14.83-11.5379,24.1253-11.6868l3.799-.2075c7.645-.4811,15.24-1.323,22.9339-1.3991,15.4206-.3075,30.6549,3.2441,45.28,7.68,9.792,2.8616,19.4891,6.0935,29.1436,9.3093,3.4111.961,6.8289,2.5135,10.3864,2.0733,28.2824-15.1695,60.9268-26.7928,91.7451-11.2882,13.7739,7,24.6775,18.65,32.7939,31.62-.1606-.2153,8.01,9.99,7.9789,9.946l-.8864.3109c1.4942-5.8692,17.5955-.7219,21.5394.33a114.3564,114.3564,0,0,1,55.7307,34.8505c7.3762,8.2552,13.6171,17.4286,21.3743,25.2877a31.9144,31.9144,0,0,0,8.5924,6.4374c3.33,1.7332,7.0035,1.1208,10.603,1.6335,3.7729.4712,7.7131,1.4223,10.63,4.088,2.9417,2.6528,4.021,6.6288,4.8567,10.295,1.171,5.3908,2.41,10.6423,5.37,15.2824,6.0236,9.2612,15.2855,16.4807,19.3605,27.0241,3.9679,10.785,1.25,22.57-1.9232,33.1923-4.4259,10.95,3.66,14.9692,9.89,22.3942a45.367,45.367,0,0,1,10.4523,19.9147c3.3661,17.1291-5.4061,38.2341-14.4252,52.5328l-.2374.3228-.1542.1908-.1247.136c-.2538.0917.2913.08-.947.4509l.6579-2.5061a52.7863,52.7863,0,0,1,10.9724,10.4955,51.1963,51.1963,0,0,1,7.5807,13.1188c6.5991,17.5634,15.2167,41.166,2.6081,57.9685-14.0123,17.6654-39.1692,37.5948-62.611,38.0463-10.0877-.0424-20.7661-4.3434-27.6363-11.8873-9.5863-10.7878-9.6489-25.6741-12.2626-39.0148a13.0455,13.0455,0,0,0-.4616-1.83.9193.9193,0,0,0,.1006.1522,1.3415,1.3415,0,0,0,.2931.2753,1.5137,1.5137,0,0,0,1.2729.2113,1.4621,1.4621,0,0,0,.8155-.5721,1.273,1.273,0,0,0,.1395-.252.8262.8262,0,0,0,.0438-.1305l-.0211.2065-.0132.3557-.0179.4839c-13.7666,21.2389-38.67,34.6926-64.1342,32.0795-19.2692-2.0257-46.4477-5.8658-61.0061-19.6851a17.0015,17.0015,0,0,1-4.8654-8.6136l2.8768.1418c-4.8046,13.6131-17.3872,23.1494-30.9834,26.8958a87.9347,87.9347,0,0,1-41.4255,1.2541c-9.0527-2.1712-18.5011-5.8644-24.0393-13.89l1.922.1672c-9.581,9.5462-20.9769,17.7435-34.2022,21.1983a46.6014,46.6014,0,0,1-8.0774,1.2c-10.5893.9852-21.2078,3.5238-31.9674,3.0055-27.0508-1.4725-51.6125-14.7759-74.8988-27.4879-18.8857-10.1242-36.298-27.0139-34.87-50.0621a57.1323,57.1323,0,0,1,10.402-28.9692l.2955-.4069.15-.202c.0934-.131.0169-.0219.1486-.0243Zm.2473-.17a.545.545,0,0,1-.0593.24,1.5427,1.5427,0,0,1-.0938.1353l-.1463.2011-.2881.4063a56.6687,56.6687,0,0,0-10.0048,28.82c-1.1662,22.6565,16.1778,39.1073,34.8809,48.8463,27.4948,14.7238,57.94,30.99,90.0931,25.6743,5.2542-.7351,10.5323-1.7017,15.9088-2.2051A45.1157,45.1157,0,0,0,283,512.341c12.68-3.3551,23.8146-11.4816,32.9552-20.6706l1.0707-1.11a25.8482,25.8482,0,0,0,10.8009,9.5607c17.91,9.1147,47.7,8.0538,64.9072-2.2747,7.4418-4.5532,13.7912-11.4641,16.695-19.749l1.7715-5.7127,1.1053,5.8544c4.9557,18.3055,46.7771,24.3452,63.2282,25.7757,24.1968,2.46,47.7613-10.2615,60.9716-30.3184l-.2234.807a3.7257,3.7257,0,0,1,.42-1.983,1.6266,1.6266,0,0,1,2.2826-.4052,1.7184,1.7184,0,0,1,.374.3572,2.14,2.14,0,0,1,.2209.3492,11.9993,11.9993,0,0,1,.7451,2.6233c2.6069,12.7858,2.5125,27.3212,11.5654,37.544,4.6323,5.2517,11.5014,8.46,18.2553,10.13,20.9121,4.1318,42.91-11.5839,57.4737-25.1984,6.72-6.6422,13.9563-13.7685,15.17-23.5826,1.96-14.53-3.1681-28.8148-8.257-42.3494A50.2967,50.2967,0,0,0,622.5708,414.22a44.4092,44.4092,0,0,0-5.4682-4.5727l.658-2.5063c-1.1819.3544-.5984.2949-.81.3486-.0139.013-.0172.0193-.0086.0082l.0629-.0781.1723-.2338c8.6939-13.7789,17.3283-34.06,14.2452-50.4536a43.0455,43.0455,0,0,0-9.81-18.882c-4.4669-5.56-12.4953-10.7844-11.5895-18.9882.5092-3.905,2.0426-7.1226,2.8966-10.8462,1.8145-6.9783,3.1083-14.2551,1.9656-21.4285-1.7318-11.08-10.5914-18.7939-17.1029-27.3474a36.5793,36.5793,0,0,1-5.8378-9.64,66.0957,66.0957,0,0,1-2.9679-10.7857c-.79-3.5385-1.7481-7.1231-4.2989-9.44-3.9469-3.5254-9.9348-3.8976-15.1335-4.082-5.8709-.2977-10.6729-4.3745-14.6084-8.2543-7.7542-7.9459-13.9894-17.21-21.2953-25.49a110.4135,110.4135,0,0,0-44.5922-31.225c-4.8748-1.742-27.7267-10.1251-30.7-4.8182l-.0974,1.3-.7892-.9887c-.0371-.0382-7.9929-10.0137-8.0209-10.0537-8.0241-12.8635-18.7391-24.4276-32.3975-31.3-28.0419-14.3441-61.0419-4.7519-87.0553,9.7159a27.62,27.62,0,0,1-4.0328,1.92c-3.7673.5572-7.4942-1.0506-11.0125-2.0293-19.3476-6.0776-38.7026-13.0717-58.8686-15.6161-10.0912-1.2624-20.2148-.7439-30.3277.2042-4.9584.4923-10.2184.6464-15.1671,1.2137a29.3414,29.3414,0,0,0-13.4321,5.7276c-4.0338,3.0565-7.11,6.95-10.3337,10.8876a12.9878,12.9878,0,0,1-3.0811,2.87c-3.901,1.6971-7.923,1.0945-11.9013,1.2058a84.9018,84.9018,0,0,0-15.0182,1.0379c-9.9062,1.85-20.0236,3.57-29.5455,6.8517-11.9147,4.0447-21.7465,12.6067-29.0194,22.6965-2.8655,3.7894-5.8525,9.4434-10.0549,12.06-2.1569,1.5353-4.8723,1.4257-7.1148,2.8333a31.3545,31.3545,0,0,0-5.7524,4.4863c-9.015,8.8794-15.9326,19.5451-23.2022,29.9514a74.7691,74.7691,0,0,0-7.5512,12.9947,60.1788,60.1788,0,0,0-4.4876,14.1956l-1.3886-1.4a2.8849,2.8849,0,0,1,2.6772.9124c2.4337,3.4559-8.3175,10.727-10.8681,12.8634-15.0891,9.8116-17.0008,30.25-14.468,46.6263-2.4367,5.0863-4.9059,10.1446-8.4529,14.5867a10.4427,10.4427,0,0,0-2.6,4.2533c-6.7672,20.419-1.0724,43.4527,10.7472,60.9516,10.7611,15.6071,25.6115,29.214,43.8543,35.3055,26.274,8.8391,55.09,6.7185,81.7371.5173,1.0451-.27,2.0986-.53,3.0518-.8007l.2164-.0613.108-.0311a.27.27,0,0,1,.2748.0274Z" fill="#00cfff"/><path d="M34.7686,345.5614c-6.0062-7.8386-7.1261-19.3516-2.0419-27.9738a47.5729,47.5729,0,0,1,6.8382-8.4547c3.0441-3.2035,6.1114-6.3895,9.2863-9.4762,4.3311-4.33,10.2669-8.7741,11.4959-15.0956.3677-1.6263.6583-3.4947.929-5.175-.8277.5868,1.2033-1.5958,1.8739-.48a1.55,1.55,0,0,1,.2111,1.24c-.541,6.7219-.8983,13.6712.903,20.2192a12.1232,12.1232,0,0,0,3.1476,5.56l-.1228.1579c-6.7-5.0917-6.4918-17.6131-6.1263-25.2879l.0648-.8324c.0007.0009.035-.4308.0323-.3722a1.0171,1.0171,0,0,0,.2472.6864c.6655,1.132,2.6889-1.0349,1.859-.4309-.5662,4.0139-1.4372,8.1979-3.9675,11.5042-2.7332,3.6658-6.3984,6.23-9.8145,9.1207a86.2335,86.2335,0,0,0-9.5417,9.1014c-5.8183,6.2677-9.6241,14.8058-8.7744,23.4753A32.6651,32.6651,0,0,0,34.932,345.446l-.1634.1154Z" fill="#00cfff"/><path d="M61.7518,282.4868c2.1447-14.3592,8.7132-34.4972,24.195-39.0381,5.7251-1.0912,11.3623-2.3573,17.0154-3.8024,12.2778-3.42,24.8355.737,36.6968,3.82a68.1063,68.1063,0,0,0,18.1409,1.74c3.1482-.0375,6.5006-.0957,9.4761,1.2508,2.9851,1.3242,5.2149,3.7682,7.1432,6.2844a62.0889,62.0889,0,0,1,4.9537,7.9013l-.1706.1044c-3.4582-4.7652-6.9954-10.4906-12.5343-12.8374-2.699-1.0637-5.7354-.8939-8.8154-.7658a73.0586,73.0586,0,0,1-9.3914-.0635c-9.3674-.7294-18.0462-4.6115-27.1695-6.399a51.3324,51.3324,0,0,0-9.0658-1.2306c-7.662-.2818-15.1733,2.4873-22.6557,4.11-10.9106,1.9541-17.295,12.1009-21.623,21.5252a109.2642,109.2642,0,0,0-5.9983,17.435l-.1971-.0338Z" fill="#00cfff"/><path d="M123.9654,238.96c-6.52-5.6048-10.83-14.6-8.7778-23.272,1.133-5.2011,4.4652-9.4247,7.8081-13.4052a85.8009,85.8009,0,0,1,14.5869-14.3608,102.0719,102.0719,0,0,1,17.6222-10.3584c8.8606-4.3206,19.0773-8.156,28.33-11.66,5.9228-2.5066,13.1524-4.0472,17.5294-8.8675,2.1063-2.5142,2.9315-5.8058,3.667-8.9555,1.3606-5.6764,2.5075-12.1508,6.789-16.4947a4.1733,4.1733,0,0,1,2.33-1.1812v.2c-4.2086,1.494-5.7209,8.8563-6.67,12.7989-1.1892,6.0572-1.6846,13.229-7.0232,17.2629a34.4743,34.4743,0,0,1-6.328,3.5282c-15.7592,6.4565-32.2439,10.8241-47.3488,18.7234a54.4167,54.4167,0,0,0-14.1066,10.6395,170.9185,170.9185,0,0,0-11.1594,13.8017c-8.08,10.1522-5.5971,22.3944,2.8842,31.4519l-.1333.1493Z" fill="#00cfff"/><path d="M227.072,130.4265a106.4469,106.4469,0,0,1,10.0453,8.2408c4.7146,4.4745,9.4614,9.193,12.54,15.0234a17.6539,17.6539,0,0,1,1.9814,6.32,50.8235,50.8235,0,0,0,3.5255,12.3357l-.6475.2641a74.2863,74.2863,0,0,1-2.0941-7.941c-1.59-8.067-2.0845-17.1006,2.24-24.4748,2.895-4.9763,8.5844-6.98,13.1187-10.0994a92.2677,92.2677,0,0,0,12.9927-9.656l.1537.128a30.9321,30.9321,0,0,1-2.7533,3.0452,81.8947,81.8947,0,0,1-9.4527,7.8662c-7.6414,5.4984-12.8668,6.68-14.99,17.06-1.41,7.874-.5368,16.1072,1.4533,23.8574l-.6474.2641a98.1038,98.1038,0,0,1-3.8087-12.455c-.72-4.2558-3.4544-7.5893-6.0643-10.9329-5.4049-6.65-11.5955-12.6682-17.7188-18.6917l.1272-.1543Z" fill="#00cfff"/><path d="M309.0745,146.6017c-14.0176,5.1823-25.2668,24.8935-30.5171,38.2847-5.9023,15.7927-8.7322,32.4708-12.6417,48.8642-1.7094,6.45-3.2088,13.2064-7.0469,18.7933a18.8151,18.8151,0,0,1-2.1883,2.405c-2.8424,2.2821-6.5839,2.8487-10.0381,3.6185-5.5687,1.0534-11.1737,1.6612-16.7222,2.4628-11.3419,1.7209-23.9993,4.1124-31.6114,13.3649-2.4178,3.0461-6.73,8.4566-9.2169,11.5068-4.5824,6.0566-11.2123,13.7832-7.37,21.6742,2.4528,4.9727,7.5147,7.9325,11.71,11.4293a74.39,74.39,0,0,1,12.1871,11.78c1.66,2.2553,3.3573,4.8065,3.3313,7.7187h-.2a8.6877,8.6877,0,0,0-1.2164-3.927c-3.6566-5.97-9.4584-10.2828-14.907-14.54-4.4886-3.4336-9.7268-6.3968-12.464-11.6753-4.5067-8.5113,2.27-17.2387,7.3082-23.7346,1.8069-2.2708,6.1744-7.7059,7.87-9.9048,11.8127-15.7438,33.74-14.5138,51.109-17.2323,3.961-.7659,8.4962-1.2715,11.1694-4.5927a19.0934,19.0934,0,0,0,2.3093-3.4259c3.8546-7.4541,5.3395-15.9533,7.0594-24.1264,1.494-8.0274,3.09-16.9361,4.9595-24.8616,3.821-16.5249,11.1337-32.5551,22.9805-44.8711,3.9876-3.9608,8.5831-7.72,14.107-9.2061l.0395.1962Z" fill="#00cfff"/><path d="M244.3821,260.61a19.2472,19.2472,0,0,1,9.8084,10.334c1.2694,3.57.4411,7.2736-.4677,10.7441a110.6265,110.6265,0,0,0-1.65,24.2934A13.4265,13.4265,0,0,0,254,312.4766l-.1419.1409a8.086,8.086,0,0,1-2.1934-2.913c-3.6356-9.0328-1.2753-19.2087,1.399-28.1823l.488-1.7062a11.4826,11.4826,0,0,0-.9112-8.2636c-1.829-4.0722-4.9161-7.5673-8.3653-10.7735l.1066-.1692Z" fill="#00cfff"/><path d="M249.2714,206.7477c-2.4041-9.5277-8.9075-19.3069-19.2211-20.9-3.25-.6306-6.5659-.24-10.0134-.01-16.4811,1.19-35.073,2.01-49.1253,11.6075a15.3274,15.3274,0,0,0-5.6892,7.7341c-1.4934,4.303-3.3859,9.75-.27,13.71,3.2447,3.773,8.4279,5.3931,12.5734,8.04,5.9082,3.6014,11.6578,7.6434,16.1149,13.01,2.1035,2.633,4.26,6.0885,3.3066,9.5885l-.194-.0485c.5712-3.4452-1.7117-6.4526-3.88-8.88-5.8586-6.1138-13.2915-10.5666-20.8181-14.3506-4.6745-2.2653-10.5427-5.4053-10.8088-11.3225-.2032-4.56,1.47-8.8,3.2706-12.8644,6.1108-10.6974,23.8674-12.8883,34.9748-15.017,6.7712-1.1284,13.5746-2.1259,20.4-2.8652,11.5821-1.9184,21.1209,1.87,26.4754,12.6644a32.19,32.19,0,0,1,3.1015,9.8716l-.1975.0323Z" fill="#00cfff"/><path d="M316.1833,202.48a32.6328,32.6328,0,0,1,7.8747,25.8587c-.986,6.4761-3.26,12.7108-4.9084,19.0015-2.75,10.0338-4.7884,20.2756-6.8468,30.4576a135.3624,135.3624,0,0,0-2.2453,15.306c-.0182.4587-.119,2.3678-.1407,2.8538.0313.7286.1092,2.0878.1428,2.7977a94.6828,94.6828,0,0,0,6.38,24.3022l-.1775.0921a70.4873,70.4873,0,0,1-6.0515-14.49,56.3386,56.3386,0,0,1-2.2945-11.6733,38.1959,38.1959,0,0,1,.0132-4.02c1.505-18.3678,8.8-35.4491,12.2869-53.4136.9993-5.0388,2.1807-10.1175,2.3783-15.231a37.4839,37.4839,0,0,0-2.9074-14.9016,35.6107,35.6107,0,0,0-3.6541-6.809l.1508-.1313Z" fill="#00cfff"/><path d="M322.8037,230.1406a55.8987,55.8987,0,0,1,18.9128-26.5076,59.0075,59.0075,0,0,1,14.4471-7.86c2.12-.9609,5.5348-1.902,7.77-2.6435a145.9248,145.9248,0,0,0,22.8925-8.2611c8.13-3.9051,12.2893-8.7715,12.055-18.0917.1371-7.9074.4058-16.6495.8694-24.51l.2,0c.4957,7.8477.6987,16.6048.8692,24.51.5552,10.1773-4.1943,15.7806-13.1758,19.7857-7.5461,3.4923-15.5617,5.238-23.54,7.2247a56.5942,56.5942,0,0,0-7.6946,2.5862,51.9165,51.9165,0,0,0-13.6585,8.5642,74.1966,74.1966,0,0,0-19.7579,25.2684l-.1889-.0656Z" fill="#00cfff"/><path d="M399.3848,172.4242a45.6225,45.6225,0,0,1,12.9683-8.5644c2.0606-.896,5.1934-1.868,7.3556-2.59,12.1059-4.5795,25.1783-6.9837,38.1416-5.8658v.2l-15.2716,2.1991c-7.5735,1.1981-15.4543,1.24-22.6444,4.0744-6.9935,3.2465-13.5378,7.1317-20.4282,10.7057l-.1213-.1587Z" fill="#00cfff"/><path d="M61.9008,334.738c6.6366,2.7653,11.7284,8.0721,16.0984,13.6061,3.0491,3.6406,6.66,6.7931,8.9443,11.0607,2.3524,4.1,2.5316,9.1256,4.6447,13.1038a10.5837,10.5837,0,0,0,5.2864,3.8981l-.0485.194a9.46,9.46,0,0,1-6.5157-3.1716c-2.2586-2.9989-2.7977-6.6676-3.893-10.0144a35.2979,35.2979,0,0,0-4.5722-9.1423,35.5106,35.5106,0,0,0-4.3242-5.4906c-5.2023-4.6992-10.4076-9.2427-15.721-13.8713l.1008-.1725Z" fill="#00cfff"/><path d="M101.8983,382.4159c16.7151,7.7587,35.4427,11.8129,53.8563,10.4319l2.7522-.2156,2.7294-.4078c9.1407-1.429,18.1935-3.5242,27.2132-5.623,14.4651-3.3734,28.8672-7.0883,43.1-11.3514,7.1622-2.0519,14.1559-4.4972,21.2919-6.66q10.7492-3.0146,21.5141-5.92c32.2667-8.7255,64.7517-17.0588,97.2868-24.7675a46.4193,46.4193,0,0,0,10.2533-3.7224c6.6758-3.1382,13.1577-6.7805,19.5721-10.504,9.62-5.6045,19.11-11.4618,28.3886-17.6234a71.6908,71.6908,0,0,0,8.914-6.6086l.16.12a71.3436,71.3436,0,0,1-8.7138,7.0054c-9.0567,6.5342-18.4175,12.63-27.95,18.451-7.9857,4.7512-16.0668,9.626-24.7032,13.2072-9.2765,3.003-91.5217,22.481-102.9339,25.5029-7.21,1.8051-14.4428,3.5392-21.5961,5.5365-6.23,1.8234-14.9939,4.7151-21.2831,6.6459-14.045,4.28-28.698,8.7249-42.911,12.299-10.8631,2.5557-21.7908,5.44-32.9622,6.2767a97.384,97.384,0,0,1-33.321-3.6542,99.9429,99.9429,0,0,1-20.754-8.2426l.096-.1756Z" fill="#00cfff"/><path d="M227.1083,326.4575c.0755,5.1824.1967,10.3487.6933,15.4505.5388,4.2636.8931,8.8779,3.3681,12.4671,5.8287,5.4442,10.7064,14.0074,19.5045,14.3065.6274-.0561,1.2564-.0784,1.8773-.1575l1.83-.4525a53.6659,53.6659,0,0,0,16.9566-8.6082c8.5282-6.6243,10.54-16.7852,10.4741-27.03a115.814,115.814,0,0,0-1.0594-15.4088l.1955-.0423a79.6909,79.6909,0,0,1,2.4386,15.41c.4033,7.8445-.3054,16.39-5.2426,22.8608-4.7633,6.4711-12.2967,10.3259-19.7639,12.5806a25.79,25.79,0,0,1-7.7177,1.5264c-8.5087-.5111-14.04-8.0432-20.0607-13.0871-5.9119-5.7267-4.5494-22.0968-3.6935-29.8262l.2.01Z" fill="#00cfff"/><path d="M90.8627,268.4044c7.3648.3644,15.565,3.3927,20.2653,9.315,2.1232,2.3935,2.0361,5.7205,2.7934,8.6227a8.3152,8.3152,0,0,0,1.7693,3.7l-.7156.3432c.7811-6.5594,3.68-13.1325,8.9519-17.3311a36.0547,36.0547,0,0,1,17.8991-7.6479l.0485.194a51.89,51.89,0,0,0-16.5928,9.1117c-5.0907,4.0368-8.1435,10.3042-9.5288,16.5716a4.0453,4.0453,0,0,1-1.0485-.9749c-1.6911-2.7938-1.5524-6.2569-2.6451-9.2113-1.1008-2.29-3.158-3.8857-5.21-5.3028a53.5444,53.5444,0,0,0-16.0114-7.1921l.0247-.1985Z" fill="#00cfff"/><path d="M138.0313,282.4149c5.84,2.6247,12.9094,7.1771,12.9152,14.3636.0188,2.8668-1.4425,5.4917-2.6191,7.9876-4.0547,8.3589-8.8593,16.3171-12.487,24.8731-3.7783,9.2393-9.7118,26.2429-2.2059,34.5942,4.2633,4.3523,11.1239,3.9355,16.8148,4.6689,12.13.9111,24.8758,1.0376,36.3515-3.4852l.0992.1734c-5.4826,3.0423-11.75,4.3184-17.91,5.14a99.2917,99.2917,0,0,1-23.37-.1629c-4.7534-.5041-9.9048-1.2257-13.3532-5.0437-8.1892-9.4127-.7331-26.0241,2.9739-36.1308,2.2868-5.7672,4.71-11.4924,7.3654-17.1007,1.3353-2.7986,2.7389-5.5631,4.1343-8.3115,1.6826-3.2376,3.4826-6.7324,2.1966-10.3984-1.8655-5.0372-6.5371-8.2619-10.997-10.99l.0919-.1776Z" fill="#00cfff"/><path d="M378.903,211.4187c8.9339,5.245,16.0382,14.8042,16.5341,25.4289.839,13.3806-12.1137,30.6228-18.4411,42.2488-1.3353,2.5051-2.6474,4.9913-2.99,7.6769-.4842,4.6492-.7112,9.4735.4086,14.0284,1.8723,7.842,8.076,12.5191,15.32,15.1931l-.0573.1918c-5.0913-1.249-10.0782-3.5554-13.433-7.7615-5.0336-6.0474-5.2665-14.4419-4.3344-21.8867.4586-3.0842,2.0125-5.839,3.4493-8.37,2.6508-4.5,5.6834-8.6632,8.5614-12.93,5.5608-8.3038,11.1059-17.9293,9.8566-28.2674-.8829-10.1807-7.0609-19.1123-14.9794-25.3829l.1053-.17Z" fill="#00cfff"/><path d="M434.9712,217.1327c-8.2552,7.1542-16.8922,13.6707-25.3878,20.48-8.08,7.2107-15.1142,15.6435-21.8446,24.0568a117.5169,117.5169,0,0,0-11.9983,17.9589l-.1848-.0765c5.8-17.6559,20.0833-30.4562,33.5948-42.4214,5.2241-5.0594,10.4968-10.1234,16.51-14.2624a94.64,94.64,0,0,1,9.1977-5.9011l.1125.1654Z" fill="#00cfff"/><path d="M438.8083,220.0361c8.668-3.9036,21.3419-9.2053,30.885-6.9413,15.0952,5.3748-1.03,28.4937-7.3093,35.8163l-1.334-1.2069c9.3925-9.3783,28.6734-25.7554,42.4877-17.9214,10.7189,7.4077,18.07,18.6441,24.0127,30.0131,1.5163,3.3236,3.3707,6.6278,3.7845,10.3262a2.8466,2.8466,0,0,1-.1035.6438c-.0153.061.0362.0121-.0863-.1222-.1249-.08-.0971-.0345-.0409-.0511a13.9606,13.9606,0,0,0,2.1166-.8434c5.8652-2.8371,13.06-4.0927,19.0875-.9106,9.5449,4.7163,13.2832,19.9834,15.7567,29.5433,1.4794,6.3037,2.5948,12.6766,3.4445,19.087a45.6114,45.6114,0,0,1,.6041,9.8c-.5562,12.1938-3.8981,36.9221,4.1977,46.3549a8.3611,8.3611,0,0,0,8.0347,2.2727,30.7384,30.7384,0,0,1,4.8372-.8732c20.7357-.9278,15.3873,33.0518,11.4428,45.591a43.183,43.183,0,0,1-3.6893,8.94l-.1727-.1008c6.8129-12.6067,14.1764-60.2214-12.0851-51.8384-22.4369,3.8687-14.0584-42.3588-14.6863-55.1211-1.5493-14.1965-3.8162-28.725-9.5514-41.87-4.0528-9.6372-11.9632-14.6759-22.3748-11.65a47.6405,47.6405,0,0,0-5.5947,2.098c-.5664.1572-1.1943.6535-1.885.2466a.7041.7041,0,0,1-.2156-.68,3.0316,3.0316,0,0,0-.0178-1.637,43.6778,43.6778,0,0,0-3.4365-8.8935c-5.7187-11.2753-13.1434-22.49-23.8495-29.5254-8.7751-4.7074-18.798.97-26.1881,5.9672a97.5035,97.5035,0,0,0-14.5178,12.3863l-1.3339-1.2071c5.5578-6.3313,21.575-28.4672,8.2978-33.4236-4.2752-1.2412-8.8728-.4865-13.2.38a100.7654,100.7654,0,0,0-17.2333,5.5323l-.084-.1816Z" fill="#00cfff"/><path d="M442.2265,242.5867c-9.889,8.4383-20.0318,19.7877-1.0466,24.5572a58.8045,58.8045,0,0,0,8.3578,1.1716c5.6344.4515,11.2361,1.094,16.8605,1.5544,5.5333.4326,11.2067,1.0917,16.7009.6488a14.2485,14.2485,0,0,0,5.1879-1.3774,12.692,12.692,0,0,0,4.0318-3.6912l.1689.1072a11.6749,11.6749,0,0,1-9.1628,6.52c-7.6245,1.1822-15.22.1352-22.7573-.8475a195.1406,195.1406,0,0,1-22.2825-4.2273c-2.7539-.8847-5.6426-1.8547-7.7-4.0206-6.5426-7.5813,5.4436-17.1149,11.53-20.5612l.1116.1661Z" fill="#00cfff"/><path d="M463.8417,270.6033c-5.2708.31-10.4663.609-15.6218,1.2315-5.1237.4847-10.5261,1.0892-14.9362,3.9788-4.3159,2.9318-7.439,7.2057-10.95,11.0166-3.3672,3.8138-7.7692,8.7512-13.4835,7.7734v-.2a11.553,11.553,0,0,0,6.694-3.2435c5.3929-5.5622,10.2492-12.3961,17.3447-16.0384,9.5214-4.7795,20.4548-6.8481,30.97-4.7175l-.0173.199Z" fill="#00cfff"/><path d="M227.0151,471.389c-6.0418.4-17.5753.3609-17.7542-7.8873.644-7.01,7.1853-12.7552,11.8386-17.3907a130.1713,130.1713,0,0,1,21.9147-17.3949c11.9752-7.45,25.8643-10.59,39.2252-14.4515,8.959-2.5412,18.0042-4.7023,26.7788-7.6022,12.711-4.25,26.3377-10.5039,32.5908-23.0527,2.0989-4.0809,2.9233-8.6449,3.878-13.1065,1.747-9.0335,4.0416-18.2241,3.657-27.4651l.1938-.0482c.7269,4.6482.163,9.3381-.2614,13.9825-.806,6.9644-1.9246,13.86-3.419,20.7093-2.4584,11.9542-12.2145,20.8249-22.9228,25.7286-17.0457,7.895-35.8269,10.2662-53.73,15.3363a108.44,108.44,0,0,0-13.2025,4.3429c-8.6,3.51-16.1765,8.9933-23.1644,15.02-5.392,5.1487-26.06,20.722-21.3522,28.4013,1.9168,2.785,5.5968,3.5755,8.8075,4.1835a44.0205,44.0205,0,0,0,6.9086.4955l.0133.2Z" fill="#00cfff"/><path d="M308.8119,408.6743c8.8181-3.7846,17.794-7.1819,26.7987-10.49,14.1754-5.0812,26.829-11.0481,42.26-7.0435,4.7541,1.1329,9.1721,3.2045,13.6378,4.7378,2.2693.8271,4.8223.8815,6.9064,2.1523,2.1613,1.17,4.01,2.706,6.1695,3.6562a13.7289,13.7289,0,0,0,6.8645,1.1676c12.019-1.4986,21.5136-9.8779,31.5114-16.1417,15.9462-10.6091,32.072-20.979,47.592-32.1853,5.7268-4.28,11.5142-8.56,16.413-13.7861,1.5558-1.7527,3.1568-3.63,3.7587-5.935l.1968.0353c-1.6224,7.2705-13.581,16.25-19.3778,20.9938-15.1585,11.8263-31.4282,22.0663-47.6514,32.3194-10.1517,6.0847-20.304,13.9075-32.3993,15.3333a15.2756,15.2756,0,0,1-7.1687-1.2141c-2.2529-.9707-4.1943-2.4676-6.2859-3.511-2.1491-1.1561-4.5973-1.0551-6.8629-1.7922-8.977-3.0093-18.1052-6.187-27.7083-5.1892-8.3939.4179-19.4944,4.8811-27.4793,7.4649-9.0565,3.1318-18.1335,6.22-27.0978,9.612l-.0769-.1846Z" fill="#00cfff"/><path d="M477.936,271.53c4.5869.2414,7.4084,5.2784,7.6283,9.4375a22.3927,22.3927,0,0,1-.2526,4.7785c-.6745,4.6484-.1989,9.3529-.6387,14.0214-.5713,6.0658-1.4659,13.3737-6.6843,17.3116l-.1329-.15c2.4982-3.3026,3.1769-7.3614,3.9173-11.33.7694-4.0274,1.2914-8.1145,2.0241-12.1713a30.3612,30.3612,0,0,0,.1172-12.24c-.6753-3.8642-2.1467-7.788-6.0061-9.4608l.0277-.1981Z" fill="#00cfff"/><path d="M485.0334,299.57c-2.0586,4.0014,2.2027,3.4268,4.9391,3.623,2.2708.17,4.8523.1989,6.91-.9055,6.1348-3.6711,9.8049-9.9214,13.8459-15.7016l.187.07a23.3576,23.3576,0,0,1-3.9592,8.94c-3.8585,5.5661-10.46,8.1583-16.92,9.26-2.2931.2245-6.812.0175-6.5945-3.2315a3.6561,3.6561,0,0,1,1.4415-2.1868l.15.132Z" fill="#00cfff"/><path d="M569.4149,355.7634c-18.3026.3081-27.1978,10.9772-30.4294,28.1234-1.2628,6.5181-1.8827,14.16-7.6458,18.5092-3.7146,2.8-7.9637,4.36-12.28,5.8351a132.4063,132.4063,0,0,1-26.1933,5.3713l-.0329-.1973c8.616-2.1885,17.2195-4.366,25.55-7.1973,9.425-3.2438,15.5758-5.4426,18.3036-16.0214,2.4742-8.5489,3.4276-17.693,8.4351-25.3766a21.7884,21.7884,0,0,1,10.94-8.0425,27.8633,27.8633,0,0,1,13.3744-1.2026l-.0229.1987Z" fill="#00cfff"/><path d="M169.9091,419.7381c8.83,15.1435,26.6439,25.4977,44.3318,21.691a56.212,56.212,0,0,0,12.5411-4.08c3.8905-1.9142,7.0126-5.168,9.9215-8.355,2.9374-3.2668,5.6968-6.71,8.467-10.156,2.8158-3.4115,5.3367-7.1473,8.6377-10.122-2.4549,3.3546-5.1924,7.2528-7.733,10.81a107.131,107.131,0,0,1-8.3651,10.3913c-3.1007,3.2241-6.3541,6.5053-10.5737,8.27-12.2842,4.8419-26.8192,6.7627-38.979.5516-7.8044-4.1286-14.9265-11.1221-18.2483-19.0006Z" fill="#00cfff"/><path d="M361.4742,395.3839a50.0221,50.0221,0,0,1,.9771,8.9644,21.6549,21.6549,0,0,0,.88,8.9164c1.8636,5.6363,3.5779,11.2126,6.5915,16.4331l-.1451.1376c-5.0433-3.7442-7.1077-10.3233-7.5218-16.3633-.07-4.6058-2.0595-8.9217-1.6466-13.5517a20.32,20.32,0,0,1,.6649-4.5447l.2.0082Z" fill="#00cfff"/><path d="M263.9494,467.5175c.2617,9.2165,7.9368,15.0324,16.3611,16.73,5.7148,1.0643,11.6207,1.32,17.3814,1.98a74.8131,74.8131,0,0,0,25.76-1.6378l.064.19a42.08,42.08,0,0,1-17.1973,4.0264c-7.4169.0511-14.5862-1.7708-21.788-3.2189-4.3758-.8134-8.8143-1.0233-12.9673-2.9642-5.5311-2.525-9.1543-9.1573-7.812-15.1327l.1981.0276Z" fill="#00cfff"/><path d="M192.7457,487.67a88.3573,88.3573,0,0,0,22.7161,9.8783,40.5063,40.5063,0,0,0,8.1475,1.4886,38.3817,38.3817,0,0,0,11.0068-1.0458c7.2774-1.5727,14.6012-2.9028,21.7377-4.7213a47.143,47.143,0,0,0,10.296-3.538c3.25-1.6954,5.3829-4.8108,8.1247-7.2927l.1517.13q-1.6287,2.2807-3.3279,4.501a16.5938,16.5938,0,0,1-2.9548,3.172c-3.48,2.6083-7.7048,3.9679-11.7523,5.0918a161.8115,161.8115,0,0,1-22.101,3.7381c-11.1147,1.4271-22.9733.79-32.94-4.8135a43.7768,43.7768,0,0,1-9.2306-6.4331l.1256-.1556Z" fill="#00cfff"/><path d="M330.2605,457.7977a311.3682,311.3682,0,0,0,38.0912,4.2059c8.5392.1017,16.9821-1.542,25.311-3.2063a183.882,183.882,0,0,0,24.4315-7.0851,50.7,50.7,0,0,0,11.379-5.6136l.1337.1487c-3.1136,3.033-7.0233,5.0651-10.9,6.9158-15.7107,7.3247-33.1986,9.3578-50.3482,9.4884-8.57.3886-17.2424.2555-25.683-1.42a80.346,80.346,0,0,1-12.47-3.2413l.0548-.1924Z" fill="#00cfff"/><path d="M420.5035,451.421a71.0726,71.0726,0,0,1,22.9223-2.9425c7.6963.4569,15.3524,1.7023,22.964,2.7912a100.2347,100.2347,0,0,0,22.7491.4519c6.9814-.7572,14.315-1.4825,20.6819-4.6262a1.8762,1.8762,0,0,0,.901-.9235l.2.0021c-.19,1.0848-1.2508,1.5677-2.0416,2.1382-9.4332,5.1141-20.6167,6.2556-31.1888,5.7209-7.7724-.2242-15.1113-3.0674-22.8093-3.7285-1.6444-.1443-4.0983-.2593-5.737-.2424a244.2824,244.2824,0,0,0-28.5937,1.5529l-.0479-.1941Z" fill="#00cfff"/><path d="M497.4919,393.9441a24.1968,24.1968,0,0,1-2.0541,19.5822c-2.0659,3.9992-5.2948,7.7294-9.7468,9.1243-5.3757,1.9212-11.1868.8948-16.7133.4919-.83-.1028-2.2609-.2319-3.0873-.3113-.0431-.0185-.1892.025-.1366-.0389l-.1583-.1223a8.061,8.061,0,0,1,1.7223-.3476c5.8942-1.0109,12.0311-.0163,17.81-1.4665,7.006-1.8889,10.6944-6.72,11.2731-13.8912a96.1965,96.1965,0,0,0,.8938-12.9855l.197-.0351Z" fill="#00cfff"/><path d="M528.4863,403.1577a21.2637,21.2637,0,0,1,4.8977,7.3712c.71,2.1175,1.1494,4.2868,2.01,6.3453l.8353,2.0608c2.3826,5.567,1.7625,11.7439.7209,17.568l-.2.0014c-1.8448-7.0923-.0221-14.619-2.7129-21.4738-1.2787-2.6037-3.0085-4.9533-4.0761-7.6776-.587-1.3268-1.17-2.6582-1.6414-4.0843l.1663-.111Z" fill="#00cfff"/><path d="M536.8314,419.76c4.8028-1.9949,10.0578-2.1078,15.1208-1.3576,1.6908.1257,3.3817.1623,5.1008.2432,6.8464.17,14.1148,4.2252,16.6475,10.81l-.1762.0946a34.0885,34.0885,0,0,0-19.0921-10.3381c-4.1853-.5661-8.2978.7758-12.4959.7032-1.6727.0618-3.3495.1155-5.067.0405l-.0379-.1963Z" fill="#00cfff"/><path d="M569.5251,458.7154c2.2425,6.2229,8.7572,9.1,15.0494,8.4406,4.3078-.5706,7.958-3.1342,11.5086-5.4448,5.2652-3.7853,10.1289-7.8814,15.1274-12.1061l.1525.1294a44.1458,44.1458,0,0,1-14.2659,13.5613,36.6066,36.6066,0,0,1-9.9973,3.9761c-3.0132.6019-5.9584,1.3887-9.1374.9759a10.3087,10.3087,0,0,1-8.6348-9.5011l.1975-.0313Z" fill="#00cfff"/><path d="M578.6264,467.52a3.71,3.71,0,0,1-1.1376,3.4583c-.4709.3928-1.0867.6393-1.52,1.0267-1.2109,1.2742-1.6569,3.0646-3.2048,4.2044a7.47,7.47,0,0,1-3.2755,1.4944l-.1251-.156a8.6011,8.6011,0,0,1,3.3143-3.9835c.8477-.7206,2.1731-1.0143,2.8081-1.987a8.9523,8.9523,0,0,0,.68-1.6158,8.53,8.53,0,0,1,2.2627-2.4735l.1975.032Z" fill="#00cfff"/><path d="M367.7514,462.3919a46.5605,46.5605,0,0,1,.0546,5.217,12.3847,12.3847,0,0,0-.2379,2.64,6.4287,6.4287,0,0,0,.7992,2.5154,57.7432,57.7432,0,0,1,3.3892,7.0816,15.2054,15.2054,0,0,1,.859,2.6l-.1643.1139c-3.4634-2.5027-5.1371-6.7022-5.2709-10.87-.3089-2.2812-1.6712-4.4559-.878-6.8209a5.8368,5.8368,0,0,1,1.2649-2.5558l.1842.0778Z" fill="#00cfff"/><path d="M399.9122,362.3736c5.5843,3.3136,12.205,11.894,6.1077,17.693a7.9278,7.9278,0,0,0-2.2706,3.1564c-1.8979,5.0837-.7691,10.7128-.2143,15.96.7793,5.3286,1.8,10.6212,2.9529,15.8834.662,2.55,1.0726,5.358,2.4287,7.6257l-.1326.15a10.421,10.421,0,0,1-2.27-3.5c-4.7352-10.8054-7.2566-27.1824-2.556-38.2939.9752-1.6582,2.5416-3.09,2.6736-5.095.5656-5.1418-3.588-9.6919-6.8429-13.4219l.1235-.1572Z" fill="#00cfff"/><path d="M340.1274,304.0252c4.38,8.8212,2.3871,19.23-1.7412,27.7658a90.6129,90.6129,0,0,1-8.0622,14.9834l-.1818-.0835A71.7649,71.7649,0,0,1,336.7,330.9576c1.6616-3.34,4.4012-6.2033,4.6207-10.1162.0832-5.6315-1.0744-11.0478-1.3845-16.76l.1916-.056Z" fill="#00cfff"/><path d="M451.2107,215.4061a37.1809,37.1809,0,0,0,7.005-7.0123,9.9944,9.9944,0,0,0,2.29-9.279,153.6383,153.6383,0,0,1-4.3608-19.9778l.1885-.0665a42.2174,42.2174,0,0,1,3.7192,9.6644c1.8171,7.9849,3.5208,18.947-4.03,24.5236a13.252,13.252,0,0,1-4.73,2.33l-.0815-.1826Z" fill="#00cfff"/><path d="M460.8968,202.4791c7.2085-9.0238,17.3466-17.5513,29.4143-17.9521,4.0241-.2955,7.6372,1.6594,11.3468,2.8388,10.918,3.3026,24.9086,3.6384,31.5136,14.5079a28.169,28.169,0,0,1,3.7766,11.1918l-.1955.0418c-2.09-7.3664-6.3524-14.1643-13.4792-17.3493-7.6022-3.7011-16.7767-4.6768-24.69-8.5354-6.4552-3.7567-12.9123-1.8383-18.9963,1.6383a103.6,103.6,0,0,0-18.5411,13.751l-.15-.1328Z" fill="#00cfff"/><path d="M434.8373,164.4045a85.8637,85.8637,0,0,1,36.0585-.176c5.19,1.0216,11.9524,2.9476,11.8616,9.54.6628,6.8893-2.2725,14.7775-8.8585,17.8226l-.0971-.1748c5.3214-4.674,7.288-11.82,7.0926-18.6791-.0252-3.2606-3.0677-5.4-5.88-6.5582-6.982-2.9479-14.7606-2.1494-22.1433-2.0372l-18.0077.461-.026-.1983Z" fill="#00cfff"/><path d="M156.85,621.5037l45.4373-93.0758L192.85,598.5037s18.6652.71,22.8326-1.145S164.85,691.9632,164.85,691.9632s19.4854-61.4938,16.2427-66.9766S156.85,621.5037,156.85,621.5037Z" fill="#177597"/><path d="M18.85,510.5037l45.4373-93.0758L54.85,487.5037s18.6652.71,22.8326-1.145S26.85,580.9632,26.85,580.9632s19.4854-61.4938,16.2427-66.9766S18.85,510.5037,18.85,510.5037Z" fill="#177597"/><path d="M544.85,624.5037l45.4373-93.0758L580.85,601.5037s18.6652.71,22.8326-1.145S552.85,694.9632,552.85,694.9632s19.4854-61.4938,16.2427-66.9766S544.85,624.5037,544.85,624.5037Z" fill="#177597"/><path d="M328.85,672.7525l66.55-136.3246L381.5782,639.0653s27.3381,1.04,33.442-1.677-74.4526,138.5635-74.4526,138.5635,28.54-90.0675,23.79-98.0981S328.85,672.7525,328.85,672.7525Z" fill="#177597"/><path d="M221.6127,57.7491a14.1487,14.1487,0,0,1-2.7533,4.2174,15.8233,15.8233,0,0,1-4.0387,3.0622,22.27,22.27,0,0,1-4.8446,1.9008,25.9106,25.9106,0,0,1-5.2008.8137,27.021,27.021,0,0,1-5.1079-.19,22.9312,22.9312,0,0,1-4.12-.932,185.3209,185.3209,0,0,0,4.568-21.539q1.7025-11.1427,3.2557-22.8519,3.1067-1.0636,6.4558-2.0184a42.6961,42.6961,0,0,1,6.938-1.36,12.6138,12.6138,0,0,1,3.1721.0678,6.7994,6.7994,0,0,1,3.0529,1.2249,7.76,7.76,0,0,1,2.3052,2.7548,9.9327,9.9327,0,0,1,.928,4.6159,16.8155,16.8155,0,0,1-.7485,5.08,19.8414,19.8414,0,0,1-1.9159,4.3054,15.0546,15.0546,0,0,1-2.6641,3.31,11.4309,11.4309,0,0,1-3.0523,2.0723,7.9643,7.9643,0,0,1,1.6158,1.3722,12.0019,12.0019,0,0,1,1.5562,2.1217,11.6692,11.6692,0,0,1,1.1672,2.9126,14.78,14.78,0,0,1,.449,3.7931A13.2958,13.2958,0,0,1,221.6127,57.7491ZM208.4815,47.9q-.21,1.2123-.3888,2.32-.1794,1.11-.3884,2.3106-.21,1.2032-.4483,2.8211a22.1112,22.1112,0,0,0,2.5709-.3132,10.3547,10.3547,0,0,0,2.7509-.8889,6.2155,6.2155,0,0,0,2.2128-1.7892,4.5028,4.5028,0,0,0,.8975-2.8551,3.5249,3.5249,0,0,0-.5685-2.0493,4.9263,4.9263,0,0,0-1.4356-1.3717,6.1768,6.1768,0,0,0-1.8838-.7884,8.543,8.543,0,0,0-1.9137-.2455l-.5081-.0031a1.7078,1.7078,0,0,0-.4485.0628Q208.69,46.6895,208.4815,47.9Zm2.87-17.1681q-.1492,1.0079-.3289,2.1161t-.389,2.1793q-.21,1.0716-.3288,1.8706a19.1148,19.1148,0,0,0,2.6313-.8261,16.5122,16.5122,0,0,0,2.3631-1.1374,6.8691,6.8691,0,0,0,1.6753-1.3325,2.2846,2.2846,0,0,0,.6283-1.5373,2.4252,2.4252,0,0,0-.5386-1.6486,3.6511,3.6511,0,0,0-1.4063-.97,6.7838,6.7838,0,0,0-1.7945-.4558,9.1031,9.1031,0,0,0-1.6448-.053l-.5983.0424Q211.5,29.7241,211.3517,30.7323Z"/><path d="M221.4329,70.01q1.6161-9.0948,3.1134-18.0248.5384-3.7961,1.1975-7.9433.6586-4.1492,1.2278-8.2688.5691-4.1157,1.078-7.979.5088-3.8589.8084-7.05a39.93,39.93,0,0,1,7.37-2.5651,49.8766,49.8766,0,0,1,7.8543-1.287,9.0424,9.0424,0,0,1,3.8688.3858,5.0558,5.0558,0,0,1,2.4,1.7864,7.6557,7.6557,0,0,1,1.23,2.89,17.99,17.99,0,0,1,.36,3.7641,22.4824,22.4824,0,0,1-.84,6.0906,28.7246,28.7246,0,0,1-2.25,5.6647,27.2632,27.2632,0,0,1-3.24,4.84,17.3835,17.3835,0,0,1-3.928,3.5053q1.0791,3.0082,2.3087,6.6249c.82,2.413,1.609,4.74,2.3092,6.9415.811,2.55,1.6194,5.1608,2.46,7.7672-3.72,1.4147-5.5789,2.0946-9.296,3.3858q-1.2-5.243-2.158-9.8043-.42-1.8717-.8394-3.8464-.42-1.9719-.7792-3.7128t-.5991-3.0666q-.2391-1.3257-.3-2.06c-.3116.1128-.4674.1691-.7791.2812q-.36,2.337-.8692,5.6752c-.34,2.2249-.64,4.3831-.9286,6.4358-.3433,2.4382-.7192,4.9637-1.0784,7.5387C227.2523,68.8548,225.3119,69.2634,221.4329,70.01Zm14.0761-30.481a7.38,7.38,0,0,0,2.7874-1.2276,19.2957,19.2957,0,0,0,3.1475-2.5666,20.4785,20.4785,0,0,0,2.5787-3.1228,5.3741,5.3741,0,0,0,1.0795-2.84,1.9067,1.9067,0,0,0-.42-1.3078,2.4925,2.4925,0,0,0-1.17-.7008,6.3969,6.3969,0,0,0-1.6491-.2578q-.8991-.029-1.8587.02c-.44.0228-.8908.0582-1.349.107s-.8692.0829-1.2286.1019C236.66,32.482,236.2763,34.8412,235.509,39.5291Z"/><path d="M266.5882,72.8743q-1.801.295-3.243.52c.16-1.7358.3327-3.4564.4806-5.1336.1293-1.465.23-2.955.33-4.4344s.1894-2.7478.27-3.8067c-2.09-.0707-3.1343-.1077-5.2233-.1848-.9607,4.494-1.441,6.7283-2.4016,11.1694q-1.3207.1482-3.1207.2951c-1.1994.0974-2.3278.1775-3.3605.26-1.2733.1013-2.5392.2168-3.78.319q2.3987-9.9289,4.74-19.8338.96-4.1434,2.01-8.716t2.1006-9.1584q1.05-4.5835,2.0108-8.8562c.6395-2.8468.9756-7.18,1.6809-7.8554.8523-.8166,5.4939-.9043,8.3161-1.4317s5.5758-1.179,8.26-1.96q-.1807,2.6089-.39,6.4722t-.3911,8.4108q-.18,4.5479-.36,9.4936c-.12,3.2981-.2579,6.556-.36,9.7256-.2394,7.4115-.4214,15.3558-.661,23.7059-1.2019.2123-2.456.3234-3.6046.4622C268.9247,72.4537,267.7887,72.6776,266.5882,72.8743Zm-5.9446-20.8761c.1592.0029.45-.004.8706-.0232s.8607-.0375,1.3209-.056.89-.0368,1.2909-.057a3.7836,3.7836,0,0,0,.8405-.1052q0-.4779.09-1.6313t.18-2.6268q.09-1.4728.21-3.2266c.08-1.1681.1675-2.3187.24-3.4291.1764-2.693.36-5.64.6-8.7863.1442-2.782.2163-4.174.36-6.96l-.9009.114c-.5524,2.7644-.8286,4.143-1.3809,6.8922C262.8771,40.1239,262.1325,44.105,260.6436,51.9982Z"/><path d="M281.1873,73.0787q-1.5638.1392-3.2456.3468t-3.0341.3828a8.8636,8.8636,0,0,0-1.4717.2487q.72-3.4409,1.4416-7.6728t1.4718-8.89q.7506-4.6576,1.4426-9.4629.69-4.8018,1.3521-9.3014,1.5014-10.4645,2.9441-21.5931c3.75-.9606,5.6258-1.4387,9.3773-2.3843q-1.5643,11.1685-3.126,21.8471-.6617,4.5542-1.3526,9.4223-.6911,4.87-1.3224,9.639-.6311,4.7708-1.262,9.2365-.6311,4.4688-1.112,8.0614A20.5148,20.5148,0,0,0,281.1873,73.0787Z"/><path d="M286.1755,75.1308q1.6828-11.5618,3.2467-22.6444.5993-4.6293,1.2923-9.7289.6911-5.0983,1.2925-10.0468.6-4.9457,1.1121-9.5711.51-4.6236.8114-8.46c1.242-.1453,2.4513-.2831,3.6078-.4293,1.0378-.1313,2.1042-.26,3.1873-.3681s2.044-.2234,2.8858-.3528c.5212,4.2943.9529,8.4346,1.3834,12.3082.1849,1.6639.4111,3.4234.6314,5.2393q.33,2.7266.6322,5.2433t.6012,4.8273q.3009,2.3092.6011,4.0742.24-1.7646.5417-4.0757.3007-2.3092.6615-4.8765.361-2.565.7513-5.2585t.7522-5.22q.9017-5.8932,1.8639-12.303c2.9352-.5362,4.4028-.8,7.3382-1.3151q-2.0448,12.655-3.6083,23.952-.7219,4.8894-1.4138,9.8589t-1.293,9.5992q-.6021,4.63-1.023,8.5405t-.6617,6.6017a9.8643,9.8643,0,0,0-1.4129.3631q-1.2333.365-2.8265.8464t-3.1877.9967q-1.5944.5169-2.3752.8328c-.2814-4.5264-.6009-8.8441-.9021-12.9036-.1277-1.7215-.2609-3.5166-.4208-5.358s-.3107-3.6-.451-5.2715-.2805-3.2479-.4208-4.7242-.2708-2.7161-.3915-3.7188q-.18,1.5046-.48,3.6757t-.6019,4.6324q-.3009,2.4621-.6011,5.0867t-.6614,5.1217q-.7817,5.91-1.6833,12.2979C291.4416,73.64,289.686,74.1472,286.1755,75.1308Z"/><path d="M338.4063,63.0646A22.0764,22.0764,0,0,1,334.9179,69.7a15.7239,15.7239,0,0,1-5.1724,4.3425,13.79,13.79,0,0,1-6.4069,1.5451,7.9338,7.9338,0,0,1-4.8118-1.82,18.516,18.516,0,0,1-4.6314-5.799c1.78-4.8731,2.6707-7.3152,4.4512-12.2023a9.5031,9.5031,0,0,0,1.2628,2.236,10.5948,10.5948,0,0,0,1.8952,1.9839,12.9175,12.9175,0,0,0,2.1049,1.3913,4.1606,4.1606,0,0,0,1.8952.5454,3.7945,3.7945,0,0,0,1.5037-.3409,4.5461,4.5461,0,0,0,1.4432-1.0157,5.2435,5.2435,0,0,0,1.0532-1.5629,5.074,5.074,0,0,0,.3908-2.0658,7.7523,7.7523,0,0,0-.9325-3.7474,17.456,17.456,0,0,0-2.3153-3.2836q-1.3833-1.5577-3.0081-3.161a32.1323,32.1323,0,0,1-2.977-3.3731,19.2233,19.2233,0,0,1-2.3161-3.9628,12.0317,12.0317,0,0,1-.9628-4.8885,18.3125,18.3125,0,0,1,1.865-8.1813,23.5891,23.5891,0,0,1,4.6617-6.5379,22.6523,22.6523,0,0,1,6.105-4.3164,14.1165,14.1165,0,0,1,6.2558-1.5331,8.6157,8.6157,0,0,1,3.0674.5935A6.284,6.284,0,0,1,341.835,16.35a9.3614,9.3614,0,0,1,1.6837,3.0867,14.4619,14.4619,0,0,1,.6314,4.6126A18.4522,18.4522,0,0,1,344,26.39q-.15,1.1709-.2708,2.5074c-3.4881,1.3682-5.2323,2.0616-8.7207,3.4575q.12-.6718.21-1.3444a10.1853,10.1853,0,0,0,.09-1.3454,7.9416,7.9416,0,0,0-.6314-3.6628,1.8909,1.8909,0,0,0-1.6536-1.148,2.1206,2.1206,0,0,0-1.1732.4979,8.3432,8.3432,0,0,0-1.3837,1.2984,7.4171,7.4171,0,0,0-1.1723,1.89,5.783,5.783,0,0,0-.4814,2.3582,6.4465,6.4465,0,0,0,.8118,3.3727A12.7884,12.7884,0,0,0,331.64,36.804q1.203,1.1811,2.6164,2.4046a13.7074,13.7074,0,0,1,2.6163,3.1563,18.6961,18.6961,0,0,1,2.015,4.8287,27.727,27.727,0,0,1,.8125,7.34A26.5592,26.5592,0,0,1,338.4063,63.0646Z"/><path d="M344.33,75.246q1.3827-9.2328,2.6462-18.1794.5408-3.7627,1.0824-7.8518t1.0522-8.0458q.51-3.9552.9021-7.6568.39-3.7.6917-6.7733a11.7626,11.7626,0,0,0-2.7969-.2107,6.2228,6.2228,0,0,1-2.7962-.5414q.0586-1.3352.06-3.0923,0-1.7553.06-3.51.0627-1.9177.1207-4.0932,1.5625.2031,3.1274.3242,1.5615.1221,3.1271.1658,3.066.0858,5.9225-.0238t5.2905-.3q2.4336-.1908,4.7784-.4914c-.2645,1.7468-.3968,2.6212-.6612,4.3718q-.3007,1.8651-.5707,3.8135t-.5111,3.3313a13.4137,13.4137,0,0,1-2.675.6294q-1.3527.1732-2.6753.4735-.4207,2.789-.9019,6.2t-.9312,7.08q-.4513,3.6693-.8717,7.4681c-.2806,2.5332-.5666,4.9624-.8424,7.2767-.65,5.4519-1.2428,11.1316-1.8031,17.0009C350.8255,73.6791,348.6605,74.2078,344.33,75.246Z"/><path d="M391.7187,42.9021a64.9554,64.9554,0,0,1-2.7916,10.3753,49.6824,49.6824,0,0,1-4.0539,8.6,43.0323,43.0323,0,0,1-4.8353,6.6382,22.7743,22.7743,0,0,1-5.1069,4.3488,10.7478,10.7478,0,0,1-4.9272,1.6728,6.3562,6.3562,0,0,1-3.6064-.8421,8.24,8.24,0,0,1-2.825-2.9063,16.6349,16.6349,0,0,1-1.894-5.1039,35.8505,35.8505,0,0,1-.6907-7.5851,59.6263,59.6263,0,0,1,.8415-9.7067,87.5069,87.5069,0,0,1,2.2838-10.0844,62.2492,62.2492,0,0,1,3.5464-9.4156,44.4044,44.4044,0,0,1,4.6276-7.7638,21.2364,21.2364,0,0,1,5.4082-5.1737,9.7618,9.7618,0,0,1,6.0074-1.6292,7.2614,7.2614,0,0,1,4.4735,1.7473,10.6587,10.6587,0,0,1,2.7625,3.9147A21.3607,21.3607,0,0,1,392.35,25.22a39.7466,39.7466,0,0,1,.42,5.74A64.8384,64.8384,0,0,1,391.7187,42.9021ZM370.184,57.6605a6.3322,6.3322,0,0,0,.6611,1.6859,4.41,4.41,0,0,0,1.0514,1.2249,2.01,2.01,0,0,0,1.3523.4847,6.4341,6.4341,0,0,0,4.8066-2.6339,21.77,21.77,0,0,0,3.4849-6.1356,43.3333,43.3333,0,0,0,2.1321-7.6237,40.3568,40.3568,0,0,0,.75-7.3367c0-.6312-.0293-1.3141-.09-2.0525a10.7756,10.7756,0,0,0-.36-2.06,4.4293,4.4293,0,0,0-.8415-1.6412,1.9668,1.9668,0,0,0-1.5317-.7146,5.4476,5.4476,0,0,0-3.5444,1.1848,12.1039,12.1039,0,0,0-2.9134,3.3506,25.6322,25.6322,0,0,0-2.2535,4.8082,57.3282,57.3282,0,0,0-1.653,5.4942,44.7128,44.7128,0,0,0-1.292,10.104A7.6932,7.6932,0,0,0,370.184,57.6605Z"/><path d="M388.9865,73.1377q1.6212-10.4929,3.1223-20.3609.54-4.1946,1.2-8.7129t1.231-8.9273q.57-4.41,1.08-8.4914t.81-7.4267a30.9433,30.9433,0,0,1,7.3811-1.4638,46.1109,46.1109,0,0,1,7.8563.04,10.4938,10.4938,0,0,1,3.8672,1.0043,6.4412,6.4412,0,0,1,2.3972,2.0429,8.0661,8.0661,0,0,1,1.2281,2.8433A15.8985,15.8985,0,0,1,419.52,27.19a18.5507,18.5507,0,0,1-.8387,5.5346,25.3282,25.3282,0,0,1-2.2475,5.1463,27.3077,27.3077,0,0,1-3.2367,4.5065,18.8,18.8,0,0,1-3.9271,3.4042q1.08,2.9386,2.3089,6.3769c.8186,2.2888,1.6082,4.4615,2.3077,6.49.8106,2.3506,1.6188,4.7243,2.4578,7.0494-3.7161,1.8533-5.5749,2.8-9.2935,4.7232q-1.2008-5.0143-2.1592-9.5253-.4211-1.8432-.84-3.8114-.4194-1.9642-.78-3.7205-.36-1.7524-.6-3.1034-.24-1.3483-.3-2.1015c-.3118.1245-.4678.1869-.78.312q-.36,2.4209-.87,5.9116c-.34,2.3305-.6409,4.6042-.93,6.778-.344,2.5848-.72,5.2772-1.08,8.0416C394.8225,70.7609,392.8776,71.55,388.9865,73.1377Zm14.1049-33.6994a7.3341,7.3341,0,0,0,2.7891-1.1539,20.833,20.833,0,0,0,5.7272-5.3013,4.7206,4.7206,0,0,0,1.0791-2.6519,1.9376,1.9376,0,0,0-.42-1.2955,2.8928,2.8928,0,0,0-1.1686-.7914,7.0784,7.0784,0,0,0-1.6494-.4187q-.8993-.1208-1.8586-.1723c-.4409-.0232-.8916-.0349-1.35-.0337q-.69.0018-1.23-.0257C404.2431,32.3029,403.8592,34.6721,403.0914,39.4383Z"/><path d="M413.5853,70.5609q2.6393-9.8987,5.0345-19.0775,1.0192-3.8747,2.0976-8.0427,1.0788-4.1646,2.1566-8.189,1.0785-4.0222,2.0066-7.7065t1.6465-6.7823a48.3571,48.3571,0,0,0,6.2264.23q2.9321-.09,6.342-.02-.1788,1.41-.3886,3.18-.2106,1.7717-.4787,3.7075-.269,1.9374-.5679,4.0147t-.7181,5.3465c-.2792,2.1825-.6581,4.9166-1.1369,8.2246l.7782-.0063c1.1564-3.3443,2.1136-6.0738,2.8714-8.2329s1.3749-3.8977,1.8534-5.24.9667-2.6393,1.4656-3.8945q.7474-1.88,1.4344-3.5488t1.2851-2.9117q1.4932.0589,2.8087.0415t2.6289-.056c.8752-.0256,1.7627-.0459,2.6579-.0618s1.8816-.0447,2.956-.0856q-.5976,3.324-1.1344,6.8847t-.9557,7.1463q-.4179,3.5842-.8059,7.115c-.2592,2.3543-.4855,4.6025-.6869,6.7314-.4717,4.9835-.896,9.899-1.2541,14.71-4.1575,1.2617-6.2374,1.907-10.4,3.2169q0-.32.09-1.7456.09-1.4226.2392-3.492.15-2.0658.4185-4.5862.2688-2.5166.5377-5.0183t.5685-4.8315q.2989-2.3277.5976-3.9773l-.5376,0q-.8381,2.6709-1.854,5.6844-1.017,3.0179-2.0635,6.1967t-2.0632,6.2911q-1.0176,3.11-1.795,5.9852-2.0951.31-3.591.579t-3.4719.6262c.7663-10.2356,1.1494-15.3114,1.9155-25.3752l-.898-.0008c-.08.59-.2793,1.5772-.5985,2.9693s-.6886,2.996-1.1076,4.816-.8683,3.7207-1.3475,5.7027S425.4192,60.915,425,62.6364q-.6288,2.5844-1.048,4.2651-.4192,1.6788-.4794,1.8963C419.5194,69.5109,417.5419,69.8642,413.5853,70.5609Z"/></g></g></svg>