<svg xmlns="http://www.w3.org/2000/svg" viewBox="0 0 191.38 219.49"><defs><style>.cls-1{fill:#f9a357;}.cls-2{fill:#e0dfe0;}.cls-3{fill:#b4b6b7;}.cls-4{fill:#a3a3a3;}.cls-5{fill:#d8d8d8;}.cls-6{fill:#fff;}.cls-7{fill:#303030;}.cls-8{fill:#cfcfce;}.cls-9{fill:#4c4c4d;}.cls-10{fill:#c9cacc;}.cls-11{fill:#464648;}.cls-12{fill:#1b1a1c;}.cls-13{fill:#ee2924;}.cls-14{fill:#46b75c;}</style></defs><title>astronaut</title><g id="Layer_2" data-name="Layer 2"><g id="pack"><path class="cls-1" d="M168.89,37.06c8.94,2.87,18.13,9.53,22,21.55,4.21,13-2.54,17.7-10.35,23.14-8.31,5.78-18.66,13-19.65,33.5-.77,16-4.53,25.9-11.18,29.45-6.3,3.37-12.63-.36-12.9-.52l1.26-2.1s5.45,3.17,10.51.45c5.73-3.08,9.15-12.56,9.86-27.4,1-21.72,11.95-29.3,20.7-35.4,7.59-5.28,13.07-9.1,9.42-20.37-4.78-14.77-18.26-20.82-28.35-21.51-9.9-.67-18.11,3.19-21.43,10.08l-2.2-1.07c3.76-7.81,12.88-12.2,23.79-11.45A35.87,35.87,0,0,1,168.89,37.06Z" transform="translate(-0.82 -0.25)"/><path class="cls-2" d="M118,50.28,151.39,61A11.85,11.85,0,0,1,159,75.91l-22.62,70.47a12.09,12.09,0,0,1-15.21,7.82L89.88,137.79Z" transform="translate(-0.82 -0.25)"/><rect class="cls-3" x="112.41" y="119.18" width="31.43" height="3.27" transform="matrix(-0.95, -0.31, 0.31, -0.95, 212.36, 274.76)"/><rect class="cls-3" x="123.79" y="83.73" width="31.43" height="3.27" transform="translate(245.41 209.04) rotate(-162.2)"/><ellipse class="cls-4" cx="139.86" cy="59.35" rx="10.81" ry="10.2" transform="translate(34.76 169.6) rotate(-69.65)"/><ellipse class="cls-4" cx="67.83" cy="33.64" rx="10.81" ry="10.2" transform="translate(11.88 85.3) rotate(-69.65)"/></g><g id="lp"><path class="cls-5" d="M147.41,52.34A6.25,6.25,0,0,1,148,56c-.64,5.89-6,15.44-12,10.92l-.35-.26c.43-.57.84-1.17,1.24-1.79a69.6,69.6,0,0,0,7.28-14.37l.18.06A3.22,3.22,0,0,1,147.41,52.34Z" transform="translate(-0.82 -0.25)"/><path class="cls-6" d="M65.06,40.71a.06.06,0,0,0,0,0c-.92-2.58,3.7-14.76,4.51-16.58A44.75,44.75,0,0,1,91,3.12c8.94-3.87,20.68-3.59,29.94-.57a45.72,45.72,0,0,1,20.31,15.6,28.24,28.24,0,0,1,3.25,5.26,25.76,25.76,0,0,1,1.95,7.17,42.14,42.14,0,0,1-2.33,20,69.6,69.6,0,0,1-7.28,14.37c-.4.62-.81,1.22-1.24,1.79a29.07,29.07,0,0,1-8.36,7.69h0c-6.59,3-14.73,3-22.66,3-3.77,0-8.76-1.25-12.4-2.26C84.55,73.05,75.78,66.54,69,60.89l-.1,0a35.41,35.41,0,0,1-1.64-4c-.27-.79-.52-1.58-.75-2.38A35.91,35.91,0,0,1,65,41h0A.26.26,0,0,0,65.06,40.71ZM138.53,48a33,33,0,0,0,.76-7.41c-.07-5.22-.8-10.6-4.14-14.62A38.76,38.76,0,0,0,124,17.19,57,57,0,0,0,101.39,11c-4.15-.27-7.44-.69-10.48-.37a15.12,15.12,0,0,0-8,3.23,50.66,50.66,0,0,0-7.81,7.82c-2.8,3.94-4.66,11.06-5.4,16s-.91,9.16,1.47,13.42c3.36,6,9,10.48,15.28,13.42s13,4.5,19.78,5.8c5.51,1,11.44,1.89,16.68.25a16.2,16.2,0,0,0,2.86-1.2c5.11-2.76,8.24-8.14,10.37-13.55A48.89,48.89,0,0,0,138.53,48Z" transform="translate(-0.82 -0.25)"/><path class="cls-7" d="M141.05,136.49c1.59,4.78,4.35,13.46,2.14,18s-8.75,7.08-13.46,5.8-8.51-9.54-8.66-14.41a4.42,4.42,0,0,1-3.27,2.39,2.93,2.93,0,0,1-3.16-2.17c-.37-2.05,1.8-3.51,3.38-4.87s3.56-3.91,3-4.13Z" transform="translate(-0.82 -0.25)"/><path class="cls-6" d="M98.16,159.42l1.33.24c-3.18,7.11-7.27,17.25-11.44,26.67l-.15-.07c-7.85-4.95-17.43-1.88-26.16-5,2.29-11.95,4.15-24.32,6.09-33.51-2,8-9.15,21.28-14,30.25-8.2-4.77-8.79-8.84-17.78-11.88-.72-.25-8.13-2.4-8.71-3.18,3.48-17.08,9.48-36.66,9.48-36.66l1.38-2.1c1.27-5.39,3.45-11.26,5.41-17.11,2.25-6.68,6.38-13.21,8.62-19.89a17,17,0,0,0,.7-6.08c0-1.23-.12-2.47-.18-3.69-5.79-4-14.69-7.83-20.28-12.1A80.5,80.5,0,0,1,24,57.44c-2.91-3-5.84-6-8.6-9.16l.15-.13L31.27,33l18.9,16-1.12,1.49L63.5,58.12s3.54-1.9,3.78-1.21a35.41,35.41,0,0,0,1.64,4,22.79,22.79,0,0,0,1.83,3.18,28.46,28.46,0,0,0,7.14,7,48.66,48.66,0,0,0,20,8,50,50,0,0,0,22.77-1.66q.47-.15.93-.33l5.3,1.75,1.64.86S137.69,92.92,138.79,98,142,114.2,142,119.79c0,5.18,1.11,16.1,1.11,16.1a6.26,6.26,0,0,1-2,.6l-20,.6c-.56-.22-.66-1-.69-1.55a73.53,73.53,0,0,0-6-26.2,7.06,7.06,0,0,0-1.45-3.15c.51,1,1,2.09,1.45,3.15a18.54,18.54,0,0,1,.3,3.94c-.13,14.2-6,31.6-12.77,44.1-.28.51-1,.75-1.4,1.12A3.46,3.46,0,0,1,98.16,159.42Z" transform="translate(-0.82 -0.25)"/><path class="cls-8" d="M139.29,40.55a33,33,0,0,1-.76,7.41s2.22-10.83-6.32-21.65c-8.37-10.63-41.3-15.7-41.3-15.7,3-.32,6.33.1,10.48.37A57,57,0,0,1,124,17.19a38.76,38.76,0,0,1,11.12,8.74C138.49,30,139.22,35.33,139.29,40.55Z" transform="translate(-0.82 -0.25)"/><path class="cls-9" d="M132.21,26.31C140.75,37.13,138.53,48,138.53,48a48.89,48.89,0,0,1-2.39,7.84c-2.13,5.41-5.26,10.79-10.37,13.55a16.2,16.2,0,0,1-2.86,1.2h0c-12.79-3.18-23.11-10-34.3-16.93-3.3-2-6.8-4.35-8.21-8a16,16,0,0,1-.66-7c.67-9.22,4.75-21.41,11.17-28.06C90.91,10.61,123.84,15.68,132.21,26.31Zm2.71,18.42c.61-1.46-.11-3.1-.84-4.5q-1.38-2.65-2.9-5.24-.52-.91-1.08-1.83A12.06,12.06,0,0,0,127.69,30c-1.82-1.49-8.34-2.91-8.38.81,0,1.53,1.63,3.39,2.4,4.6l1,1.48,3.11,4.87c1.07,1.67,2.23,3.42,4,4.3S134.14,46.56,134.92,44.73Z" transform="translate(-0.82 -0.25)"/><path class="cls-8" d="M134.08,40.23c.73,1.4,1.45,3,.84,4.5-.78,1.83-3.36,2.25-5.14,1.37s-2.94-2.63-4-4.3l-3.11-4.87,1.14-.73a2.42,2.42,0,0,0,1,1,2.5,2.5,0,0,0,4.94-.56,2.55,2.55,0,0,0-.11-.74l1.56-.9Q132.7,37.57,134.08,40.23Z" transform="translate(-0.82 -0.25)"/><path class="cls-8" d="M131.18,35l-1.56.9a2.49,2.49,0,0,0-1.18-1.44,2.5,2.5,0,1,0-4.64,1.75l-1.14.73-1-1.48c-.77-1.21-2.42-3.07-2.4-4.6,0-3.72,6.56-2.3,8.38-.81a12.06,12.06,0,0,1,2.41,3.12Q130.66,34.08,131.18,35Z" transform="translate(-0.82 -0.25)"/><path class="cls-6" d="M129.62,35.89a2.55,2.55,0,0,1,.11.74,2.5,2.5,0,0,1-4.94.56,2.39,2.39,0,0,0,1.22.32,2.5,2.5,0,0,0,2.5-2.5,2.1,2.1,0,0,0-.07-.56A2.49,2.49,0,0,1,129.62,35.89Z" transform="translate(-0.82 -0.25)"/><path class="cls-6" d="M128.44,34.45a2.1,2.1,0,0,1,.07.56,2.5,2.5,0,0,1-2.5,2.5,2.39,2.39,0,0,1-1.22-.32,2.1,2.1,0,0,1-.07-.56,2.5,2.5,0,0,1,2.51-2.5A2.38,2.38,0,0,1,128.44,34.45Z" transform="translate(-0.82 -0.25)"/><path class="cls-6" d="M126,32.5a2.49,2.49,0,0,1,2.43,2,2.38,2.38,0,0,0-1.21-.32,2.5,2.5,0,0,0-2.51,2.5,2.1,2.1,0,0,0,.07.56,2.42,2.42,0,0,1-1-1A2.51,2.51,0,0,1,126,32.5Z" transform="translate(-0.82 -0.25)"/><path class="cls-7" d="M122.91,70.54h0c-5.24,1.64-11.17.8-16.68-.25-6.77-1.3-13.56-2.85-19.78-5.8S74.53,57.1,71.17,51.08c-2.38-4.26-2.2-8.57-1.47-13.42s2.6-12.06,5.4-16a50.66,50.66,0,0,1,7.81-7.82,15.12,15.12,0,0,1,8-3.23c-6.42,6.65-10.5,18.84-11.17,28.06a16,16,0,0,0,.66,7c1.41,3.61,4.91,5.91,8.21,8C99.8,60.58,110.12,67.36,122.91,70.54Z" transform="translate(-0.82 -0.25)"/><path class="cls-10" d="M121.57,77.07q-.46.18-.93.33a50,50,0,0,1-22.77,1.66,48.66,48.66,0,0,1-20-8,28.46,28.46,0,0,1-7.14-7,22.79,22.79,0,0,1-1.83-3.18l.1,0c6.76,5.65,15.53,12.16,23.14,14.25,3.64,1,8.63,2.26,12.4,2.26,7.93,0,16.07,0,22.66-3A29.67,29.67,0,0,1,121.57,77.07Z" transform="translate(-0.82 -0.25)"/><path class="cls-11" d="M87.9,186.26l.15.07a189.12,189.12,0,0,1-8.34,17.06c-8.54-.62-12.06.44-18.88,4.87a39.83,39.83,0,0,0-5.88-.33c2.74-7.24,4.91-16.82,6.79-26.68C70.47,184.38,80.05,181.31,87.9,186.26Z" transform="translate(-0.82 -0.25)"/><path class="cls-7" d="M84.29,206.5c.32,1.78.19,1.06-.3,2.79a69.56,69.56,0,0,1-3,7.39,41.31,41.31,0,0,0-20.15-8.42c6.82-4.43,10.34-5.49,18.88-4.87a11.68,11.68,0,0,1,3.71,1.7A2.87,2.87,0,0,1,84.29,206.5Z" transform="translate(-0.82 -0.25)"/><path d="M81,216.68c-.49,1.12-.94,2.17-1.27,3.06-7.54-.29-13.63-3.05-20.32-6.54a11.31,11.31,0,0,0-4.1-1.58h0a1.55,1.55,0,0,1-1.15-2.41c.52-.72.6-.66.75-1.3l.08,0a39.83,39.83,0,0,1,5.88.33A41.31,41.31,0,0,1,81,216.68Z" transform="translate(-0.82 -0.25)"/><path class="cls-5" d="M67.05,23.18a6.51,6.51,0,0,1,2.51.91c-.81,1.82-5.43,14-4.51,16.58a.06.06,0,0,1,0,0A2,2,0,0,0,65,41h0c-.51.61-4-.25-4.59-1.15a5.26,5.26,0,0,1-.67-2.25c-.36-2.9.77-7.2,2-9.88S63.38,23.13,67.05,23.18Z" transform="translate(-0.82 -0.25)"/><path class="cls-6" d="M65.06,40.71A.26.26,0,0,1,65,41,2,2,0,0,1,65.06,40.71Z" transform="translate(-0.82 -0.25)"/><path class="cls-5" d="M53,81.09h-.18S52.92,82,44,77.4a114.84,114.84,0,0,1-16.6-10.63s-7.59-7.91-14.47-16.23l2.41-2.39.12.13c2.76,3.15,5.69,6.18,8.6,9.16a80.5,80.5,0,0,0,8.45,7.86C38.08,69.57,47,73.41,52.77,77.4,52.83,78.62,52.92,79.86,53,81.09Z" transform="translate(-0.82 -0.25)"/><path class="cls-11" d="M53.85,178c-.79,1.48-1.53,2.84-2.16,4C48.16,188.7,45.91,196,44,203.24a3.32,3.32,0,0,0,0-.55,3.45,3.45,0,0,0-1-.6l-4.57-1.36c.58-3.85-2.21-6.17-4.78-9.09a24.77,24.77,0,0,0-3.65-3.59,18.77,18.77,0,0,0-4.48-2.46c-.21-3.48-.37-5.72-.39-7.68a127,127,0,0,1,2.29-15c.58.78,8,2.93,8.71,3.18C45.06,169.15,45.65,173.22,53.85,178Z" transform="translate(-0.82 -0.25)"/><path d="M44,203.24a28.39,28.39,0,0,0-.56,3.18A182.59,182.59,0,0,1,24.59,201c-3-1-6.13-2.26-8.07-4.78.33-1.06.58-1.92.82-2.74h0c1.38,1.26,3.69,1.73,5.47,2.32q7.74,2.56,15.55,4.92l4.57,1.36a3.45,3.45,0,0,1,1,.6A3.32,3.32,0,0,1,44,203.24Z" transform="translate(-0.82 -0.25)"/><path class="cls-7" d="M33.59,191.64c2.57,2.92,5.36,5.24,4.78,9.09q-7.82-2.35-15.55-4.92c-1.78-.59-4.09-1.06-5.47-2.32h0c.33-1.11.63-2.16,1.08-3.6a8.6,8.6,0,0,1,2.21-4.18c1.17-1,3-.78,4.83-.12a18.77,18.77,0,0,1,4.48,2.46A24.77,24.77,0,0,1,33.59,191.64Z" transform="translate(-0.82 -0.25)"/><path class="cls-7" d="M32.63,24.39A10.66,10.66,0,0,1,31,32.76l.29.25L15.59,48.15l-.15.13-.12-.13,0,0C14.63,47.15,4.15,32,2.84,28a.84.84,0,0,1,0-.17,24.62,24.62,0,0,1-.31-5.45h0a5.29,5.29,0,0,1,.88-1.76,10,10,0,0,1,4.41-2.78c3.94-1.59,8.52-3.16,12.27-1.16,3.3,1.77,4.72,5.67,5.86,9.23a4.57,4.57,0,0,1,1-3,3.22,3.22,0,0,1,3.6-1.49A4,4,0,0,1,32.63,24.39Z" transform="translate(-0.82 -0.25)"/><path class="cls-11" d="M25.07,177.91c0,2,.18,4.2.39,7.68A23,23,0,0,1,25.07,177.91Z" transform="translate(-0.82 -0.25)"/><path class="cls-12" d="M15.32,48.15l-2.41,2.39C9,45.84,5.38,41,3.47,37.39-1,28.93,1.38,24,2.23,22.63l0,0c.08-.1.16-.22.24-.34s0,0,0,.06h0a9.9,9.9,0,0,0,.31,5.45.84.84,0,0,0,0,.17c.12.4.25.8.39,1.18A57.16,57.16,0,0,0,12.63,45c.86,1.07,1.75,2.12,2.66,3.15Z" transform="translate(-0.82 -0.25)"/><path class="cls-7" d="M15.29,48.1c-.91-1-1.8-2.08-2.66-3.15a57.16,57.16,0,0,1-9.4-15.82c-.14-.38-.27-.78-.39-1.18C4.15,32,14.63,47.15,15.29,48.1Z" transform="translate(-0.82 -0.25)"/><path class="cls-7" d="M2.48,22.33a24.62,24.62,0,0,0,.31,5.45A9.9,9.9,0,0,1,2.48,22.33Z" transform="translate(-0.82 -0.25)"/></g><g id="buttons"><rect class="cls-10" x="37.03" y="131.51" width="72.66" height="3.49" transform="translate(43.46 -16.3) rotate(17.81)"/><rect class="cls-10" x="61.14" y="72.92" width="1.8" height="54.83" transform="translate(32.84 -14.42) rotate(17.81)"/><rect class="cls-10" x="59" y="114.33" width="56.01" height="2.15" transform="translate(38.65 -21.33) rotate(17.81)"/><rect class="cls-10" x="77.68" y="112.17" width="2.02" height="22.25" transform="translate(40.67 -18.41) rotate(17.81)"/><rect class="cls-10" x="94.53" y="83.66" width="6.91" height="6.91" transform="translate(30.53 -26.05) rotate(17.81)"/><rect class="cls-10" x="102.35" y="86.42" width="6.91" height="25.17" transform="translate(34.54 -27.87) rotate(17.81)"/><rect class="cls-10" x="91.98" y="91.59" width="6.91" height="6.91" transform="translate(32.83 -24.89) rotate(17.81)"/><rect class="cls-10" x="89.08" y="100.61" width="6.91" height="6.91" transform="translate(35.45 -23.57) rotate(17.81)"/><rect class="cls-10" x="69.39" y="93.14" width="14.38" height="11.58" rx="4.28" transform="translate(33.11 -18.93) rotate(17.81)"/><path class="cls-1" d="M29.71,153.34c3.71,1,22.07,6,30.27,13,.7.61,1.75-3.51,1.75-3.51.4-.66-.37-1-1-1.5-3.52-2.7-17.34-12-30-13C30.72,148.36,29.05,153.17,29.71,153.34Z" transform="translate(-0.82 -0.25)"/><path class="cls-1" d="M66.77,167.25c3.7,1,14.7,2,22.9,9.08.7.61,1.74,1.76,2.33.36l.94-2.39a1.51,1.51,0,0,0-.37-2c-3.53-2.69-15-8.5-27.65-9.53l-.66,3.8C64.26,167.26,66.77,167.25,66.77,167.25Z" transform="translate(-0.82 -0.25)"/><path class="cls-1" d="M12.89,50.57,31.06,32.5l1.16,1.31s-15.56,16-15.63,16.06l-2.22,2.41-1.48-1.71" transform="translate(-0.82 -0.25)"/><polygon class="cls-1" points="48.23 50.24 29.11 68.36 32.09 70.29 48.23 50.24"/><polygon class="cls-1" points="66.41 56.3 51.9 76.79 52.08 82.37 66.41 56.3"/><polygon class="cls-1" points="120.66 76.79 112.04 105.94 127.64 79.07 120.66 76.79"/><path class="cls-1" d="M114.69,110c2.4-.52,23.88-12.84,23.88-12.84l1.29,6.09Z" transform="translate(-0.82 -0.25)"/><polygon class="cls-1" points="119.39 136.84 141.68 129.71 142.27 136.17 119.39 136.84"/><circle class="cls-13" cx="78.24" cy="80.79" r="3.12"/><circle class="cls-14" cx="83.67" cy="88.16" r="3.12"/><path class="cls-8" d="M123.59,70c-11.81-3-24.42-9.2-34.41-16A18.41,18.41,0,0,1,84,48.32a15.49,15.49,0,0,1-2.25-4.6C79.25,34,85.1,19.1,90.32,10.54,85.06,17.43,79.06,28.1,79.06,38a20.63,20.63,0,0,0,.52,5.32,20.66,20.66,0,0,0,3.28,6.42c3.7,5.24,7.22,7.48,13.67,10.82,1.72.89,13.63,6.37,15.21,6.87C113.68,68,122.91,70.54,123.59,70Z" transform="translate(-0.82 -0.25)"/></g></g></svg>