<?xml version="1.0" encoding="utf-8"?>
<!-- Generator: Adobe Illustrator 26.1.0, SVG Export Plug-In . SVG Version: 6.00 Build 0)  -->
<svg version="1.1" id="Layer_1" xmlns="http://www.w3.org/2000/svg" xmlns:xlink="http://www.w3.org/1999/xlink" x="0px" y="0px"
	 viewBox="0 0 210.8 118.3" style="enable-background:new 0 0 210.8 118.3;" xml:space="preserve">
<style type="text/css">
	.st0{fill:#FFFFFF;}
	.st1{fill:#177597;}
</style>
<g id="a">
</g>
<g id="b">
	<g id="c">
		<g>
			<path class="st0" d="M101.3,5.4c-1.3,0-2.6,0-3.9,0c-0.9,0-1.8,0-2.7,0c0.9,0,1.8,0,2.7,0C98.7,5.3,100,5.4,101.3,5.4z"/>
			<path class="st0" d="M79.5,114.5L79.5,114.5l4.1,0.4c10.5,0.9,21.1,0.8,31.6-0.3c10.5-1.1,20.9-3.2,30.9-6.6
				c10-3.4,19.6-8,27.9-14.4c4.1-3.2,7.9-6.9,11-11.1c3.1-4.2,5.4-8.9,6.5-14c0.3-1.3,0.4-2.5,0.7-3.8c0-1.3,0.2-2.6,0.1-3.9
				c0-2.6-0.5-5.2-1.1-7.7c-0.7-2.5-1.7-5-2.8-7.3c-1.2-2.3-2.6-4.6-4.2-6.7c-3.2-4.2-7.1-7.9-11.3-11.2c-4.2-3.3-8.8-6-13.6-8.5
				c-9.6-4.8-19.8-8.2-30.3-10.4C118.7,6.9,108,5.9,97.2,5.8C88.6,5.9,80,6.5,71.5,8c-8.5,1.4-16.9,3.5-25,6.5
				c-4.1,1.5-8,3.2-11.8,5.2c-3.8,2-7.6,4.1-11,6.7c-6.9,5-13.2,11.2-17.2,18.6C2.2,52.4,0.9,61.2,3,69.3
				c2.1,8.1,7.1,15.2,13.4,20.9c6.2,5.7,13.6,10.1,21.3,13.6c7.7,3.5,15.9,6,24.2,7.9l5.6,1.6L79.5,114.5"/>
			<path class="st0" d="M106.7,5.6c0.3,0,0.5,0,0.8,0C107.2,5.6,107,5.6,106.7,5.6z"/>
			<path class="st0" d="M101.5,5.4c1.2,0,2.4,0.1,3.5,0.1C103.8,5.5,102.7,5.4,101.5,5.4z"/>
			<path class="st0" d="M92.3,5.4c0.1,0,0.2,0,0.3,0C92.5,5.4,92.4,5.4,92.3,5.4z"/>
			<path class="st1" d="M194.7,60.2c-0.1-2.8-0.6-5.5-1.4-8.1c-0.8-2.6-1.9-5.2-3.2-7.6c-1.4-2.4-2.8-4.7-4.6-6.8
				c-3.4-4.3-7.5-7.9-11.8-11.1c-4.4-3.2-9-5.9-13.9-8.2c-9.7-4.7-20-7.8-30.5-10c-7.2-1.5-14.5-2.4-21.8-2.8c-0.3,0-0.5,0-0.8,0
				c-0.6,0-1.1-0.1-1.7-0.1c-1.2-0.1-2.4-0.1-3.5-0.1l-0.2,0c-1.3,0-2.6,0-3.9,0c10.7,0.1,21.4,1,31.9,3.3
				c10.5,2.2,20.7,5.6,30.3,10.4c4.8,2.4,9.3,5.2,13.6,8.5c4.2,3.2,8.1,6.9,11.3,11.2c1.6,2.1,3,4.3,4.2,6.7
				c1.2,2.4,2.2,4.8,2.8,7.3c0.6,2.5,1.1,5.1,1.1,7.7c0.1,1.3-0.1,2.6-0.1,3.9c-0.2,1.3-0.3,2.6-0.7,3.8c-1.1,5.1-3.5,9.8-6.5,14
				c-3.1,4.2-6.9,7.9-11,11.1c-8.3,6.4-17.9,11-27.9,14.4c-10,3.4-20.4,5.5-30.9,6.6c-8.1,0.8-27.7,0.3-41.5-0.7
				c-4-0.3-9.2-1.6-11.4-2l-0.5-0.1c-8.3-1.9-16.4-4.4-24.2-7.9c-7.7-3.5-15.1-7.9-21.3-13.6C10.3,84,5.2,76.9,3.1,68.8
				C1,60.7,2.3,51.9,6.5,44.5c4-7.5,10.3-13.6,17.2-18.6c3.5-2.5,7.2-4.7,11-6.7c3.8-1.9,7.8-3.7,11.8-5.2c8.1-3,16.5-5.2,25-6.5
				c8.5-1.4,17.2-2,25.8-2.1c-0.9,0-1.8,0-2.7,0c-0.7,0-1.4,0-2.1,0c-0.1,0-0.2,0-0.3,0c-15.6,0.4-31.1,3-45.9,8.2
				c-8.2,2.9-16,6.6-23.2,11.5C16,29.9,9.5,36,5,43.7c-4.5,7.6-6.2,16.9-4.2,25.7c0.5,2.2,1.2,4.3,2,6.4c0.9,2.1,1.9,4,3.1,5.9
				c2.3,3.8,5.2,7.2,8.4,10.3c6.4,6.1,13.9,10.9,21.8,14.8c7.7,3.7,15.9,6.6,24.2,8.6l6.2,1.1c5.4,0.8,12.2,1.4,17.2,1.6
				c21.5,1.1,48.6-1.3,63.8-6.8c10.2-3.8,20.1-8.8,28.6-15.7c4.2-3.5,8.1-7.4,11.3-12c3.1-4.5,5.5-9.7,6.6-15.1
				c0.3-1.3,0.4-2.7,0.6-4.1C194.7,62.9,194.8,61.6,194.7,60.2L194.7,60.2z"/>
			<polygon class="st1" points="191.3,33.4 210.8,26 208.5,22.3 			"/>
			<polygon class="st1" points="186.2,7.5 185.5,28.3 190.5,8.5 			"/>
			<polygon class="st1" points="209.2,11.4 204.5,7.7 187.8,30.4 			"/>
		</g>
	</g>
</g>
</svg>
