<?xml version="1.0" encoding="UTF-8"?><svg xmlns="http://www.w3.org/2000/svg" width="210.7692" height="112.9681" viewBox="0 0 210.7692 112.9681"><g id="a"/><g id="b"><g id="c"><g><path d="M101.2728,.0497C99.9755,.0196,98.6736,0,97.3637,0,96.4711,0,95.582,.0083,94.6953,.0223c.8895-.0128,1.7791-.0232,2.6684-.0222,1.3028,.003,2.606,.02,3.9091,.0496Z" fill="#fff"/><path d="M79.5258,109.1601h0l4.1401,.3623c10.5255,.921,21.1338,.7504,31.6433-.3068,10.5027-1.0993,20.9091-3.2377,30.9093-6.5934,9.9682-3.373,19.6297-7.9526,27.9182-14.3974,4.1198-3.2251,7.9309-6.8784,11.0027-11.0853,3.0514-4.2033,5.445-8.9223,6.5435-13.9948,.348-1.2524,.437-2.5495,.6515-3.8284,.044-1.2929,.221-2.5879,.1272-3.8853,.0039-2.6006-.4539-5.1815-1.0791-7.7083-.6501-2.5301-1.6603-4.9577-2.8136-7.315-1.2482-2.3076-2.5996-4.582-4.2434-6.6544-3.1864-4.2216-7.073-7.9125-11.293-11.153-4.2157-3.2564-8.7935-6.0492-13.5636-8.4531-9.5514-4.8011-19.8059-8.1945-30.2892-10.3769-10.4881-2.2118-21.2168-3.174-31.9322-3.2586-8.633,.0774-17.2752,.6819-25.7895,2.1219-8.5218,1.3728-16.9209,3.533-25.0016,6.5417-4.0515,1.4738-7.992,3.2372-11.8303,5.1815-3.8301,1.9587-7.5599,4.1294-11.034,6.6568-6.9444,5.0018-13.1939,11.1673-17.2433,18.6386-4.1182,7.3993-5.4354,16.2487-3.334,24.3423,2.0557,8.1256,7.1405,15.2266,13.3588,20.8588,6.2337,5.6852,13.5941,10.0887,21.3021,13.5971,7.7387,3.4854,15.8892,6.037,24.1749,7.9313l5.5589,1.5764,12.1163,1.202" fill="#fff"/><path d="M106.685,.2621c.2736,.0144,.5471,.0311,.8207,.0467-.2731-.0166-.547-.0315-.8207-.0467Z" fill="#fff"/><path d="M101.4672,.054c1.1804,.0281,2.3605,.0704,3.5404,.1214-1.174-.0536-2.355-.0925-3.5404-.1214Z" fill="#fff"/><path d="M92.2856,.0774c.1151-.0033,.2301-.0064,.3451-.0095-.115,.0033-.2302,.006-.3451,.0095Z" fill="#fff"/><path d="M194.6648,54.8478c-.0751-2.767-.6324-5.4946-1.3671-8.1395-.7596-2.6491-1.8869-5.1632-3.1562-7.5831-1.3626-2.3668-2.8287-4.6783-4.5762-6.7639-3.3974-4.2513-7.4607-7.8964-11.8247-11.0623-4.3718-3.1631-9.0383-5.884-13.8712-8.2374-9.683-4.7017-20.037-7.8359-30.5373-9.9794-7.1958-1.4753-14.4985-2.3519-21.8263-2.7734-.2736-.0156-.5471-.0323-.8207-.0467-.5592-.0296-1.118-.0625-1.6774-.0867-1.1799-.051-2.36-.0933-3.5403-.1214l-.1945-.0043c-1.3031-.0296-2.6063-.0466-3.9091-.0496,10.7154,.0846,21.4441,1.0468,31.9322,3.2586,10.4833,2.1824,20.7378,5.5758,30.2892,10.3769,4.7701,2.4039,9.3479,5.1967,13.5636,8.4531,4.22,3.2405,8.1066,6.9314,11.293,11.153,1.6438,2.0724,2.9952,4.3468,4.2434,6.6544,1.1533,2.3573,2.1635,4.7849,2.8136,7.315,.6252,2.5268,1.0829,5.1077,1.0791,7.7083,.0938,1.2974-.0833,2.5924-.1273,3.8853-.2145,1.2789-.3035,2.576-.6515,3.8284-1.0985,5.0725-3.4921,9.7915-6.5435,13.9948-3.0718,4.2069-6.8829,7.8602-11.0027,11.0853-8.2885,6.4448-17.95,11.0244-27.9182,14.3974-10.0002,3.3557-20.4066,5.4941-30.9093,6.5934-8.1309,.8179-27.7142,.3065-41.5277-.7458-4.041-.3079-9.1707-1.6124-11.3957-1.9658l-.5352-.1223c-8.2857-1.8943-16.4362-4.4459-24.1749-7.9313-7.7079-3.5084-15.0684-7.9119-21.3021-13.5971-6.2183-5.6322-11.3031-12.7332-13.3588-20.8588-2.1014-8.0936-.7842-16.9431,3.334-24.3423,4.0494-7.4713,10.2989-13.6368,17.2433-18.6386,3.4741-2.5273,7.2039-4.6981,11.034-6.6568,3.8383-1.9443,7.7788-3.7076,11.8303-5.1815,8.0807-3.0087,16.4798-5.1689,25.0016-6.5417C80.0885,.682,88.7308,.0775,97.3637,0c-.8893-.001-1.7789,.0094-2.6684,.0222-.6883,.01-1.3763,.0273-2.0646,.0456-.115,.0031-.23,.0062-.3451,.0095-15.5738,.4456-31.1162,3.0302-45.8634,8.1717-8.155,2.8801-16.03,6.644-23.2437,11.4919-7.1602,4.8681-13.7195,10.9522-18.148,18.6012C.535,45.9044-1.1804,55.291,.8385,64.0272c.4786,2.1809,1.1646,4.3177,2.0479,6.3652,.8514,2.0632,1.905,4.0352,3.0819,5.922,2.3457,3.7867,5.2356,7.1959,8.4192,10.2656,6.3827,6.1491,13.9118,10.9296,21.7984,14.7865,7.7352,3.749,15.8831,6.5822,24.2066,8.629l6.2261,1.0789c5.4186,.8175,12.2147,1.368,17.2325,1.6279,21.4883,1.113,48.6243-1.296,63.8307-6.7501,10.2041-3.7694,20.0776-8.7733,28.5625-15.7472,4.2167-3.4912,8.1175-7.4368,11.2519-11.984,3.1134-4.5419,5.5332-9.6524,6.5624-15.1149,.3305-1.3475,.3967-2.7415,.582-4.1109,.0153-1.3846,.1576-2.7672,.0241-4.1475Z" fill="#1a1a1a"/><polygon points="191.3109 28.0596 210.7692 20.6846 208.4775 16.9346 191.3109 28.0596" fill="#1a191a"/><polygon points="186.1916 2.2047 185.5067 23.0024 190.4812 3.1602 186.1916 2.2047" fill="#1a191a"/><polygon points="209.2478 6.0768 204.4682 2.3756 187.8345 25.071 209.2478 6.0768" fill="#1a191a"/></g></g></g></svg>